<svg width="314" height="60" viewBox="0 0 314 60" fill="none" xmlns="http://www.w3.org/2000/svg">
<g clip-path="url(#clip0)">
<path d="M294.52 45.5536V56.5517H285.264V45.5536L289.91 42.4683L294.52 45.5536Z" fill="#EF0036"/>
<path d="M275.245 37.4229V56.5518L265.989 59.9638V32.3776L275.245 37.4229Z" fill="#EF0036"/>
<path d="M313.83 32.432V59.9638L304.574 56.5518V37.2959L313.83 32.432Z" fill="#EF0036"/>
<path d="M313.83 9.72777L298.258 20L313.757 30.2613L313.83 30.3085V30.3811L304.574 35.245L304.392 35.1252L289.909 25.5172L275.245 35.245V35.3539L266.109 30.3739L265.989 30.3085L281.561 20L265.989 9.72777V0.980036L267.986 0L289.909 14.4828L311.797 0L313.83 0.980036V9.72777Z" fill="#EF0036"/>
<path d="M55.1729 45.372V0.0362549H67.6955V46.0617C67.6955 47.804 68.5667 48.6751 70.309 48.6751H87.3326C89.0748 48.6751 89.946 47.804 89.946 46.0617V0.0362549H102.469V45.372C102.469 55.0998 97.6048 59.9637 87.877 59.9637H69.8008C60.0367 59.9637 55.1729 55.0998 55.1729 45.372Z" fill="white"/>
<path d="M109.51 48.0944V11.8693C109.51 5.33575 114.809 0 121.379 0H146.679C153.212 0 158.548 5.29946 158.548 11.8693V48.0944C158.548 54.6279 153.248 59.9637 146.679 59.9637H121.379C114.809 59.9637 109.51 54.6279 109.51 48.0944ZM121.996 46.0617C121.996 47.804 122.867 48.6751 124.61 48.6751H143.375C145.118 48.6751 145.989 47.804 145.989 46.0617V13.902C145.989 12.1597 145.118 11.2886 143.375 11.2886H124.61C122.867 11.2886 121.996 12.1597 121.996 13.902V46.0617Z" fill="white"/>
<path d="M167.296 59.9637V0.0362549H196.479C206.207 0.0362549 211.071 4.90014 211.071 14.6279V26.2794C211.071 36.0072 206.207 40.8711 196.479 40.8711H179.782V60H167.296V59.9637ZM179.819 29.5462H195.971C197.713 29.5462 198.584 28.6751 198.584 26.9328V13.902C198.584 12.1597 197.713 11.2885 195.971 11.2885H179.819V29.5462Z" fill="white"/>
<path d="M219.746 59.9637V0.0362549H232.269V48.6751H258.149V59.9637H219.746Z" fill="white"/>
<path d="M31.5427 0H22.7586H0V59.9274H22.0327H22.7586H31.5427C40.2178 59.9274 47.2595 52.8857 47.2595 44.2105V35.4265V24.4646V15.6806C47.2595 7.04174 40.2178 0 31.5427 0ZM12.5227 48.6388V11.2886H28.8203C32.1234 11.2886 34.7731 13.9383 34.7731 17.2414V42.686C34.7731 45.9891 32.1234 48.6388 28.8203 48.6388H12.5227Z" fill="white"/>
</g>
<defs>
<clipPath id="clip0">
<rect width="313.829" height="60" fill="white"/>
</clipPath>
</defs>
</svg>
