<svg width="80" height="100" viewBox="0 0 80 100" fill="none" xmlns="http://www.w3.org/2000/svg">
<path d="M47.5496 75.9224V94.2527H32.123V75.9224L39.8665 70.7803L47.5496 75.9224Z" fill="#EF0036"/>
<path d="M15.4265 62.3716V94.253L0 99.9397V53.9626L15.4265 62.3716Z" fill="#EF0036"/>
<path d="M79.7341 54.0532V99.9395L64.3076 94.2529V62.1597L79.7341 54.0532Z" fill="#EF0036"/>
<path d="M79.7338 16.2129L53.781 33.3333L79.6128 50.4356L79.7338 50.5142V50.6352L64.3073 58.7417L64.0048 58.542L39.8669 42.5287L15.4265 58.7417V58.9232L0.199647 50.6231L0 50.5142L25.9528 33.3333L0 16.2129V1.63339L3.32728 0L39.8669 24.1379L76.346 0L79.7338 1.63339V16.2129Z" fill="#EF0036"/>
</svg>
