<svg width="80" height="66" viewBox="0 0 80 66" fill="none" xmlns="http://www.w3.org/2000/svg">
<g clip-path="url(#clip0)">
<path d="M73.8216 65.9999H6.17842C2.77224 65.9999 0 63.2572 0 59.8874V19.5266C0 16.1567 2.77224 13.4141 6.17842 13.4141H73.824C77.2302 13.4141 80.0024 16.1567 80.0024 19.5266V59.8874C80 63.2572 77.2302 65.9999 73.8216 65.9999ZM6.17842 17.0324C4.78864 17.0324 3.65731 18.1516 3.65731 19.5266V59.8874C3.65731 61.2623 4.78864 62.3816 6.17842 62.3816H73.824C75.2138 62.3816 76.3451 61.2623 76.3451 59.8874V19.5266C76.3451 18.1516 75.2138 17.0324 73.824 17.0324H6.17842Z" fill="white"/>
<path d="M39.477 16.9094C38.5041 16.9094 37.5289 16.5716 36.7486 15.8914L26.4545 6.67683C25.706 6.00625 25.6475 4.86287 26.3253 4.12232C27.0031 3.38178 28.1588 3.32389 28.9074 3.99448L39.1844 13.1946C39.3526 13.3417 39.633 13.3321 39.8086 13.1608L52.575 0.530568C53.2894 -0.176205 54.4476 -0.176205 55.162 0.530568C55.8764 1.23734 55.8764 2.38313 55.162 3.0899L42.398 15.7177C41.5958 16.5089 40.5376 16.9094 39.477 16.9094Z" fill="white"/>
<rect x="11" y="23" width="59" height="33" rx="2" fill="white"/>
</g>
<defs>
<clipPath id="clip0">
<rect width="80" height="66" fill="white"/>
</clipPath>
</defs>
</svg>
