<svg width="102" height="66" viewBox="0 0 102 66" fill="none" xmlns="http://www.w3.org/2000/svg">
<path d="M101.204 37.5556L99.5556 36.5722C99.299 36.4235 98.9714 36.508 98.8228 36.7614L97.4247 39.1539L95.5773 42.3609C95.3646 42.7292 94.8918 42.8576 94.5203 42.6447L88.7183 39.2891C88.3468 39.0762 88.2185 38.6031 88.4346 38.2314L90.3866 34.8521L91.7409 32.534C91.8895 32.2805 91.805 31.9561 91.5517 31.8074L89.5761 30.6281C89.3194 30.476 88.9918 30.5639 88.8433 30.8173L87.5971 32.9429L71.0422 61.4199L69.7994 63.559L69.742 63.657L69.4009 64.2416C69.3907 64.2619 69.3772 64.2788 69.3603 64.299L69.3536 64.3058L68.9146 65.0425H85.5134C85.7025 65.0425 85.8781 64.9411 85.976 64.7789L87.928 61.4199L99.8191 40.9652L101.393 38.2821C101.541 38.0287 101.457 37.7042 101.204 37.5556ZM86.1652 58.3414L82.8116 64.1504C82.5989 64.5187 82.1261 64.6471 81.7546 64.4342L75.9526 61.0786C75.5811 60.8657 75.4561 60.3926 75.6689 60.0209L79.0191 54.2153C79.2318 53.8436 79.708 53.7186 80.0761 53.9315L85.8815 57.2837C86.2496 57.4966 86.3779 57.9731 86.1652 58.3414ZM92.5109 47.325L89.1607 53.134C88.9479 53.5057 88.4751 53.6307 88.1036 53.4178L82.3017 50.0656C81.9302 49.8493 81.8018 49.3762 82.018 49.0079L85.3681 43.1989C85.5809 42.8272 86.0537 42.7022 86.4252 42.9151L92.2306 46.2673C92.5987 46.4836 92.727 46.9567 92.5109 47.325Z" fill="white"/>
<path d="M48.3881 6.27733C48.2125 6.17258 47.9863 6.23003 47.8816 6.40913L44.7104 11.8869C44.4943 12.2552 44.0215 12.3836 43.6534 12.1674L37.8547 8.80501C37.4833 8.58874 37.3583 8.11565 37.5744 7.74393L40.7355 2.28982C40.8469 2.10058 40.7861 1.8539 40.6038 1.73562C39.9959 1.33687 38.7227 0.488681 38.0945 0.0696542C37.8953 -0.0621366 37.6285 -0.00131007 37.5069 0.204824C26.6054 19.0813 14.1031 40.5328 3.24884 59.3484C2.19179 61.18 1.15162 63.0217 0 65.0425H12.9278L7.18663 61.7105C6.81851 61.4943 6.69018 61.0212 6.90632 60.6528L10.2666 54.8507C10.4827 54.4789 10.9556 54.3539 11.327 54.5702L17.1223 57.9325C17.4938 58.1488 17.6187 58.6219 17.406 58.9936L14.0423 64.7924C13.9815 64.8972 13.9004 64.9783 13.8059 65.0425H18.0848L20.7325 60.3555L21.3944 59.1829C24.9674 52.8738 28.6384 46.6222 32.2621 40.3402C38.0236 30.3545 45.3284 18.5035 51.2554 8.37585C51.3601 8.20013 51.2993 7.9771 51.1203 7.87234C50.5056 7.5209 49.148 6.73691 48.3881 6.27733ZM23.5389 48.4098L20.1752 54.212C19.9625 54.5803 19.4863 54.7087 19.1182 54.4925L13.3196 51.1267C12.9515 50.9138 12.8231 50.4407 13.0393 50.069L16.4029 44.2702C16.6157 43.8985 17.0885 43.7735 17.46 43.9864L23.2552 47.3521C23.6267 47.565 23.7517 48.0415 23.5389 48.4098ZM29.6719 37.8294L26.3082 43.6282C26.0954 43.9999 25.6226 44.1249 25.2511 43.912L19.4525 40.5463C19.0844 40.33 18.9595 39.8569 19.1722 39.4886L22.5359 33.6864C22.7486 33.3181 23.2214 33.1897 23.5929 33.4059L29.3915 36.7683C29.7597 36.9846 29.8846 37.4577 29.6719 37.8294ZM35.8048 27.2456L32.4411 33.0477C32.2284 33.4161 31.7556 33.5445 31.3841 33.3282L25.5888 29.9625C25.2174 29.7496 25.0924 29.2765 25.3052 28.9048L28.6688 23.106C28.8816 22.7343 29.3578 22.6092 29.7259 22.8221L35.5245 26.1879C35.8926 26.4008 36.0209 26.8772 35.8048 27.2456ZM41.9377 16.6651L38.5775 22.4639C38.3613 22.8357 37.8885 22.9607 37.517 22.7478L31.7218 19.3821C31.3503 19.1692 31.2254 18.6927 31.4381 18.3244L34.8018 12.5222C35.0179 12.1538 35.4907 12.0254 35.8588 12.2417L41.6574 15.6074C42.0256 15.8203 42.1539 16.2934 41.9377 16.6651Z" fill="white"/>
<path d="M64.8788 58.6015L61.1605 65.0424H26.5411C26.5918 64.5895 26.737 64.1367 26.9768 63.7143L38.6652 43.4591C39.6176 41.81 41.7249 41.2457 43.373 42.1953L63.6158 53.8909C65.2638 54.8438 65.8312 56.9524 64.8788 58.6015Z" fill="white"/>
<path d="M82.6495 26.5831C83.1088 26.8535 83.2641 27.4448 82.9973 27.9078L72.8523 45.4901C71.9033 47.1392 69.7926 47.7035 68.1445 46.7539L47.9017 35.0583C46.2537 34.1054 45.6897 31.9967 46.6421 30.3476L56.9154 12.5389C57.1856 12.0692 57.7867 11.9103 58.2528 12.1874L82.6495 26.5831Z" fill="white"/>
</svg>
