<?xml version="1.0" encoding="utf-8"?>
<!-- Generator: Adobe Illustrator 26.0.1, SVG Export Plug-In . SVG Version: 6.00 Build 0)  -->
<svg version="1.1" id="Layer_1" xmlns="http://www.w3.org/2000/svg" xmlns:xlink="http://www.w3.org/1999/xlink" x="0px" y="0px"
	 viewBox="0 0 1000 1000" style="enable-background:new 0 0 1000 1000;" xml:space="preserve">
<style type="text/css">
	.st0{fill:#26073D;}
	.st1{fill:#FFDECC;}
	.st2{fill:#FC9595;}
	.st3{fill:#333333;}
	.st4{fill:#1E1E1E;}
	.st5{fill:#D9171A;}
	.st6{fill:#ECFFD2;}
	.st7{fill:#1A1A1A;}
	.st8{opacity:0.15;}
	.st9{fill:#B7131B;}
</style>
<path class="st0" d="M444.3,986.2c0,0,0.8,0.1,0.8,0.1c-0.1,0-0.2,0-0.2,0C444.7,986.2,444.5,986.2,444.3,986.2z"/>
<g>
	<path class="st1" d="M691.4,310.8c-19.8-18.9-36-41.9-39.8-69.6c-12,15.1-26.4-5.9-31.7-16.8c-6.6-13.1-8.9-28-10.5-42.4
		c0-1-0.1-2.1-0.2-3.1c-1,1.5-2.1,2.9-3.1,4.4c-5,6.7-9,0.3-11.2-4.7c-3.2-6.2-9-11.1-16.4-9.3c-16.2,3.8-28.9,15.8-42.7,24.4
		c-21.8,13.9-47.3,28.1-73.9,26.5c-6.4-1.1-11.2-6.6-12-12.9c-3.7,2.9-7.6,5.6-11.6,8c-13.8,7.6-62.2,33.1-57.2-0.6
		c-14.7,13.7-32.5,24-51.5,30.3c-0.6,0.1-1.1,0.3-1.7,0.5c0.1,0.5,0.2,1,0.2,1.4c2,16.4,3,34.5-3.9,50
		c-5.6,10.7-12.7,19.8-16.6,31.1c-3.6,17.3-2.8,35-1.4,52.3c4.5,16,6.7,32.5,10.2,48.7c12.1,55.1,24,113.6,64.4,155
		c33.8,33.2,81.1,53.6,128.3,54.6c1.9,0.1,4-0.3,5.9,0.4c0,0,0,0,0,0c1-0.1,2-0.1,3-0.2c48.2-5.2,91.3-38.2,121.4-74.1
		c28.3-34.6,38.3-78.9,45.7-121.8c3.3-19.7,6.7-39.4,12.2-58.7c0.2-0.6,0.5-1.2,0.7-1.9C697,358.7,696.4,334,691.4,310.8z
		 M588.7,443.1c-28.1-2.1-51.7-24.9-55.3-52.7c-2.6-19-3.6-39,5.3-56.1c2.6-2.9,7.3-2.5,10.9-2.9c7.3-0.5,13.2-0.7,20.3-0.4
		c29.2,2,59.7,6.3,85.1,21.4c-0.1-0.1-0.2-0.2-0.3-0.3c9.2,8.4,5.5,22,3.7,32.6C651.8,417.1,623,445.6,588.7,443.1z M470.6,390.4
		c-3.6,27.8-27.1,50.7-55.3,52.7c-34.3,2.5-63.1-26.1-69.8-58.5c-1.8-10.6-5.5-24.2,3.7-32.6c-0.1,0.1-0.2,0.2-0.3,0.3
		c25.5-15.1,56-19.4,85.2-21.4c7-0.3,12.9-0.1,20.3,0.4c3.6,0.4,8.3,0,10.9,2.9C474.2,351.4,473.1,371.4,470.6,390.4z"/>
	<path class="st1" d="M465.3,334.3c-2.6-2.9-7.3-2.5-10.9-2.9c-7.3-0.5-13.2-0.7-20.3-0.4c-29.2,2-59.7,6.3-85.2,21.4
		c0.1-0.1,0.2-0.2,0.3-0.3c-9.2,8.4-5.5,22-3.7,32.6c6.7,32.4,35.5,61,69.8,58.5c28.1-2.1,51.7-24.9,55.3-52.7
		C473.1,371.4,474.2,351.4,465.3,334.3z M435.2,390.7c-3,2.8-8.4,5.1-12.4,3c-10.5-8,1.7-43.4,15.6-30.8
		C443.7,371.1,440.5,383.2,435.2,390.7z"/>
	<path class="st2" d="M481.7,459.9c0.2,0.6,0.2,0.7,0.6,1.3c4.9,5.4,11.2,11.1,19.3,11.8c9.5,0.3,16.7-7.3,18.8-14.8
		C509.6,465.9,493.4,466.6,481.7,459.9z"/>
	<path class="st1" d="M705.2,394.4c-2.1,14.6-6.3,32.3-6.5,37.1c-2.3,15-4.9,30.1-8.4,45.1c3.8-5.3,7.3-10.7,9.7-16.6
		c4.7-10.6,1.7-22.4,4.5-33.3c0.4-4.3,21.7-38.4,24.5-28.1c-2.2,5.3-6.5,9.8-8.8,15.2c1.5,0.5,1.7,2.5,2.2,3.8
		c2.3,9.9,0.4,20.2-2,29.9c-4,18.8-16.8,37.7-34.4,45.6c-2.3,8.2-4.8,16.3-7.7,24.3c0.4,0,0.8,0,1.1-0.1
		c35.7-14.2,51.9-56.2,57.4-91.6C741.2,400.4,730.4,366.2,705.2,394.4z"/>
	<path class="st2" d="M718.1,418.2c-3.7,8.8-7.8,17.8-9,27.3c-1.6,14-8.2,26.3-15.4,38.3C715.5,470.4,720.4,441.9,718.1,418.2z"/>
	<path class="st3" d="M750.4,237c-1.8,41.8-21.9,80.7-31.3,121.2c-0.3,3.1-4,11-5.4,17.1c-2.7,1.3-5.2,3-7.4,5.1
		c-0.1-1.5-0.2-2.8-0.5-3.8c0.8-7.8,0.4-18.4,0-25.2c-0.1-3-0.2-5.2-0.2-6.2c-0.8-12.2-3.9-23.9-6-35.9c1.8-3.5-1.1-6.5-3.6-8.7
		c-10.8-11.1-21.3-22.9-27.3-37.7c-4.7-10.8-7.3-22.9-8.9-34.8c-0.3-1.6-0.8-3.2-2.1-4.3c-2.3-2-5.9-1.2-7.1,1.6
		c-1.2,2.7-0.5,5.9-0.1,8.8c-3.8,5.2-6.6,6-11.1,1c-7.1-6.9-10.8-16.2-13.4-25.7c-3.2-11.5-5.4-23.7-7.5-35.6c-1-3.5-1.6-15-7.4-11
		c-0.7,1.2-1.2,2.4-1.5,3.8c-2.8,2.5-5.5,6.5-7.1,8c-11-28.1-42.1-10.5-59,1.7c-16.7,11.6-33.6,22-53.2,28.9
		c-9.1,2.2-31.5,14.9-32.2-2.3c0-0.8-0.1-1.7-0.4-2.6c6.3-6.3,11.7-13.6,15.2-21.9c0.6-1.6,2.8-5.2,0.1-5.9c-2.5,0.5-4,3.2-6.1,4.6
		c-12.6,12-25,24.5-41,32.1c-10.6,5.3-22.2,9.6-33.9,12c-2.9,0.4-1.6-4.4-1.6-6.2c0.1-5.5,3.1-11.3,2.6-16.8c-1-3.1-5.5-3.9-7.4-1.3
		c-14.4,18.9-36.3,30.6-58.4,38.8c-4.4,2.8-16.8,3.4-15,10.4c1.6,2.8,4,3.1,6.9,2.4c-0.7,23.2,0,47.2-15.6,66.6
		c-6.7,12.6-4.1,28.4-4.9,42.4c0,6.1,0.5,12.2,1.2,18.2c-0.3,0.7-0.6,1.5-0.8,2.5c-2.7-2.3-5.8-3.9-9.2-4.8c-2-0.6-4-0.8-6.1-0.8
		c-0.9-2.7-2.3-5.6-2.4-7.9c-7-26.4-12.5-53.1-18.1-79.9c-6.3-28.6-3.7-55.3,0.3-84.7c4.3-28.5,22.5-60.8,47.9-89.8
		c6-6.9-17.9,0.1-11.2-6.3c9.3-8.9,49.6-31,59.9-38.6c39.3-29.1,84-47.2,121.5-40.8c31,4.1,55.4,11.5,83.6,26.1
		c2,1.1,33.1-5,58.8,9.9c13,7.5,19.5,43,31.7,50.4c17.6,10.7,30.9,11.5,35.1,15.9C723.9,146.3,748.1,203.3,750.4,237z"/>
	<path class="st2" d="M286.6,416.5c-2.1,21.1,0.1,45.9,16.6,58.9c-3.2-6.9-5.2-14.4-5.7-22.1c-0.7-9.6-0.5-20.1-6-28.3
		C290.1,422.1,288.4,419.3,286.6,416.5z"/>
	<path class="st4" d="M564,287.9c25.3,4.4,49.7,11.6,73.3,20.4C629,290,581.8,269.7,564,287.9z"/>
	<path class="st1" d="M654.8,352.1c0.1,0.1,0.2,0.2,0.3,0.3c-25.5-15.1-56-19.4-85.1-21.4c-7-0.3-12.9-0.1-20.3,0.4
		c-3.6,0.4-8.3,0-10.9,2.9c-8.9,17.1-7.9,37.1-5.3,56.1c3.6,27.8,27.1,50.7,55.3,52.7c34.3,2.5,63.1-26.1,69.8-58.5
		C660.3,374.1,664,360.4,654.8,352.1z M581.2,393.7c-3.9,2.1-9.3-0.2-12.4-3c-5.3-7.5-8.5-19.6-3.2-27.8
		C579.5,350.3,591.7,385.7,581.2,393.7z"/>
	<path class="st1" d="M315.5,492.8c-3.3-3.2-6.2-6.9-8.6-10.8c-23.3-13.8-27.1-46.1-24.1-71.5c-2.6-4-5.2-8.1-7.2-12.3
		c0.9-5.3,7.5-0.9,9.6,1.4c23.6,19.4,9.9,44.9,21.9,68.4c3.2,5.1,6.5,10.6,10.3,15.5c-4.2-16-7.8-32.2-11.3-48
		c-0.7-4.6-5-23.9-6.8-39.6c0-0.1-0.1-0.1-0.1-0.2c-3.7-9.7-16.7-16.2-24.6-7.2c-4.8,7.2-4.5,15.9-4.8,24.1
		c1.8,33.9,9.3,74.9,40,94.5c6,3.5,11.5,6.3,17.4,8.6c-2.6-7.4-5-14.9-7.2-22.5C318.7,493.9,317,494.2,315.5,492.8z"/>
	<path class="st4" d="M365.9,313.1c25.2-8.8,51.4-16,78.6-20.5C425,274.4,374.4,294.7,365.9,313.1z"/>
	<path class="st5" d="M756,783.7c-5.6,14.2-9.1,29.2-13.1,44c-9.5,36.5-17.1,73.6-19.7,111.3c-14.3,4-28.8,7.8-43.2,11.2
		c-23,5.5-46.3,10.4-69.7,14.3c-10.6,1.7-21.3,3.3-32,4.7c1-1.9,1.6-4.1,2.7-5.8c5.9-14.4,13.5-27.9,22.2-40.7
		c24.3-35.3,40.3-52,38.9-75.7c-0.7-11.3-5.3-24.3-14.8-41.6c-2.1-3.8-4.4-7.7-7-11.9c51.4-47.7,49.1-67.8,23.6-110.5
		c31.7,23.4,62.2,48.7,89.8,76.8C741.4,767.4,748.8,775.4,756,783.7z"/>
	<path class="st5" d="M759.4,787.7c-8.7,21.5-12.5,44.6-18,67.1c-4.9,21.1-8.9,42.2-10.6,63.8c-0.6,6.2-1.1,12.4-1.6,18.6
		c28.5-8.3,56.6-18.2,83.3-30.7c3.9-1.3,8.5-5.9,12.6-6.2c-15.3-36-33-71.4-57.1-102.4C765.3,794.5,762.3,791.1,759.4,787.7z"/>
	<path class="st5" d="M599.4,681.9c5.2-1.7,2.7,12.3,2.2,15c-7.6,41.6-14.7,83.3-20.4,125.2c0.1-0.1,0.1-0.2,0.2-0.3
		c20.4-30.8,57-51.2,68.7-87.1c2.3-10.4-2.9-20-7.3-29c-8.5-17.1-18-33.7-28.4-49.7c-4.4-6.9-8.2-12.6-13-18.8
		C600.6,652.1,599.9,667,599.4,681.9z"/>
	<path class="st1" d="M590.7,643c-0.2,12,0,24,0.8,36c-1.7,0.2-3.2,1.6-4.1,3.2c-15.4,17.7-34.3,33.8-56.9,41.1
		c-34.9,9.3-74.4-1.2-101.6-24.9c-2.1-1.2-8.5-9.1-12.8-12.7c1.9-13.8,1.7-27.7-0.1-41.5c0-0.3,0-0.6-0.1-0.9
		c-0.8-3.2-1.2-12.4-2.5-20.4c29.8,17.2,64,26.9,97.9,27.4c1.6,0.3,3,0,4.1-0.7c23.7,1.9,52-11,76.3-27.1
		C591.2,629.4,590.9,636.2,590.7,643z"/>
	<path class="st5" d="M586.7,934.8c13.9-26.2,35.6-49.3,43.9-78.1c3-20.4-10.6-37.9-18.4-55.7c-11.9,11.6-23.3,22.7-32.9,36
		c-4,31.2-7.1,62.6-8.9,94c-0.7,13.1-1.1,26.3-1.4,39.4c1-0.1,2-0.2,3.1-0.4c-0.5-1.7,0.4-3.6,1-5.3
		C576.6,954.4,581.2,944.2,586.7,934.8z"/>
	<path class="st5" d="M242.9,775.9c-7.9,9.2-15.3,18.8-22.2,28.7c-18,26.2-31,55-42.9,84.4c-0.5,1.3-1.1,2.9-1.7,4.4
		c0.3,0.2,0.6,0.4,0.9,0.6c11.6,7.6,24,14.7,36.3,20.7c20.6,9.9,41.9,18.3,63.5,25.6c-5.3-24.4-8.5-49.5-13.5-74
		C256.8,836.1,249.5,806,242.9,775.9z"/>
	<path class="st5" d="M401.6,800c8.9,11,17.7,22.1,25.6,33.8c-2.4-14.8-5-29.6-7.6-44.4c-4.9-32.6-14.9-64.7-16.7-97.8
		c0.1-5.1,1.9-7.9,3.9-6.7c0.1-1.6,0.1-3.2,0.2-4.7c0.6-14.4-0.6-28.8-2.3-43.1c-0.7,0.8-1.3,1.5-1.9,2.4
		c-10.6,14.9-19.1,30.8-27.6,46.9c-7.5,15.9-17.6,31.1-22.1,48.2C351.8,757.5,388.7,781.3,401.6,800z"/>
	<path class="st5" d="M436.7,972.8c-8.6-0.8-17.1-1.7-25.7-2.8c-43-5.4-85.7-14.1-126.9-27.2c-11.6-56.8-24.5-113.8-38.5-170
		c10.4-11.9,21.6-23.3,33.4-34c27.9-25.5,59.1-47.6,91.4-66.9c-3.4,6.3-6.7,12.6-10,18.8c-6,13.2-15.3,25.6-17.9,40.1
		c-1.6,26.5,21.8,47.3,42.2,65.9c-2.8,3.2-5.2,6.8-7.6,10.4c-2.1,3.4-4.2,6.8-6.5,9.9c-4.5,7-8.9,14.8-11,22.9
		c-1.9,7.2-2,14.7,1.5,22.1C382.4,901.4,418.1,931.6,436.7,972.8z"/>
	<path class="st6" d="M591.3,703.1c0.7-2.1,1.3-4.4,1.9-6.6c0-0.8-0.1-1.6-0.3-2.2c-0.1-1.2-0.2-2.4-0.4-3.7
		c-3.7,4.4-9.1,8.9-10.7,11.4c-20.4,21.9-48,37.6-78.7,35.5c-32.9-1-70.6-14.8-88.3-44c-0.6,2.9-1.3,5.9-2,8.7
		c17.2,77.7,31.5,156.6,38.3,235.9c0.7,11.3,1.4,22.6,1.8,33.9c0,0.7-0.1,1.4-0.4,2.1c35.4,2,70.8,0.9,106-2.7
		c-0.2-63.1,7.6-125.9,17.5-188C580.2,756.5,584.3,729.5,591.3,703.1z"/>
	<path class="st5" d="M401.4,812.5c-3.1-3.4-6.6-6.8-10.3-10.2c-28.8,49.3-30.9,46.5,5.7,95.1c2.8,3.1,36,51.2,46,73.8
		c-1.8-40.1-6.6-79.9-12.8-119.5C421.4,837.9,413.3,823.8,401.4,812.5z"/>
	<path class="st7" d="M519.6,451.4c-6.8,4.9-15.3,7.7-24.2,7.4c-6.8,0.3-12-3.9-17.9-5.9c-1.4,0.2-1.6,1.7-0.9,2.6
		c-0.4,10.6,10.9,19.3,22,21.8c10.5,2.5,21-3.4,24.5-12.2c1.6-4.3,5.2-10.1,3-14.4C524.3,448.8,521.1,449.6,519.6,451.4z M501.7,473
		c-8.2-0.7-14.4-6.4-19.3-11.8c-0.4-0.6-0.4-0.7-0.6-1.3c11.7,6.8,27.9,6,38.7-1.7C518.3,465.7,511.2,473.2,501.7,473z"/>
	<path class="st7" d="M538.4,523.2c-2.3,0.1-3.5,1.6-5.4,2.4c-18.4,9.3-15.6,10.2-69.2,2.5c-0.9-0.6-2-1.4-3.1-2.1
		c0.4-0.5,0.8-1,1.1-1.3c0.3-5.8-16,4.8-12.7,7.5c2.3,2.6,5.4,0.5,8.1-2.2c9.2,4.5,41.4,10.5,56.7,9.3c14.1,0,14.4-4.5,27.1-11.3
		C543.9,526.5,542.1,523,538.4,523.2z"/>
	<path class="st7" d="M414.2,393.7c5.8,2.1,13.7-0.2,18.2-3c7.8-7.5,12.5-19.6,4.7-27.8C416.7,350.3,398.7,385.7,414.2,393.7z"/>
	<path class="st7" d="M358.8,319c0.5,0.3,1.1,0.5,1.7,0.6c8-0.7,15.4-3.4,23.2-5c23.2-6.2,47.2-10,70.9-14.7c7-4.9-1.3-14-7.3-17.6
		c-16.2-8.9-37.1-4.7-53.3,0.9c-13.7,4.6-24.2,14.4-32.3,24C359.5,310.7,355.8,315.3,358.8,319C358.9,319.1,358.9,319,358.8,319z
		 M444.5,292.6c-27.2,4.4-53.4,11.6-78.6,20.5C374.4,294.7,425,274.4,444.5,292.6z"/>
	<path class="st7" d="M590.1,393.7c15.7-8-2.5-43.4-23.2-30.8c-7.9,8.2-3.2,20.3,4.8,27.8C576.2,393.5,584.3,395.8,590.1,393.7z"/>
	<path class="st7" d="M620.6,309.9c7.2,1.6,14.2,4.3,21.6,5c0.6-0.1,1.1-0.2,1.6-0.6c0,0,0,0,0,0c2.8-3.7-0.7-8.3-2.7-11.7
		c-7.7-9.7-17.6-19.4-30.3-24c-15.1-5.6-34.6-9.8-49.5-0.9c-5.5,3.5-13.2,12.6-6.6,17.6C576.6,299.9,599.1,303.6,620.6,309.9z
		 M637.2,308.3c-23.5-8.8-48-16-73.3-20.4C581.8,269.7,629,290,637.2,308.3z"/>
	<path class="st0" d="M367.6,301.6c0,0.1-0.1,0.2-0.1,0.3c0,0,0,0,0,0C367.6,301.8,367.6,301.7,367.6,301.6z"/>
	<path class="st7" d="M818.6,858.4c-18.7-39.2-44.5-74.8-75.4-105.4c-33.3-32.6-68.7-64.1-107.8-89.2c-1.5-0.6-2.8-1-4-1.2
		c-3.6-5.7-7.4-11.8-11.5-18.4c-2.7-3.4-11.4-17.4-17.9-19.8c0.2-3.1,0.3-6.2,0.4-9.3c11.2-8.2,21.2-16.8,28.9-24.3
		c20.1-18.5,34-41.1,44-65.6c1.7,0.8,3.5,1.3,4.9,1.3c20.4-2.9,38.4-22.2,48.1-39.6c14-27.5,34.9-87.9,5.9-110.8
		c-3.6-2.3-7.5-3.3-11.3-3.2c2.3-6.9,4.4-13.9,7.1-20.6c14-40.1,26.8-81.3,30.3-123.9c-0.1-19.6-9.2-37.8-17.6-55
		c-9.8-18.4-22.6-38.8-40-51.3c-2.5-1.8-15-7.4-25.6-10.9c3.5-27-25.3-50.9-16.4-34c7.7,14.6-1.1,29.8-7,14.1
		c-25.8-68-73.2-46.2-70.4-38.7c-23.5-19.9-55.1-29.1-68.7-33.6c-37.5-11.7-71.1-3-106.7,15.6c-31.2,13.8-105,32.1-126.1,89.6
		c-2.8,7.5,42.3-28,12.9,3.5c-16.4,17.6-19.8,24.4-31,48c-23.6,55.6-5.2,140.4,13,198.3c-2,0.7-4,1.5-5.8,2.7
		c-20.3,15.4-11,56.9-6.4,78.6c8.6,36,29.5,64.6,67,73.2c0.3,0.1,0.5,0.1,0.8,0.2c7.6,18.5,17.2,36.1,30.2,51.7
		c11.3,13.6,24.7,25.5,39.5,35.4c0.5,3.7,1,7.4,1.5,11.1c-1.9,1.1-3.6,2.7-5.1,4.1c-7.5,7.9-13.9,17-19.6,26.5c-2.5,0.8-5,2-6.5,2.6
		c-30,13.2-55.9,33.9-81.2,54.4c-45.5,36.6-84.7,81.8-108.6,135.4c-6.2,13.4-11.6,27.2-17.5,40.8c-1.3,2.8,0.2,6.2,3,7.4
		c1,0.4,1.8,0.5,2.6,0.4c4.5,3.9,10.7,7.9,13.3,9.8c72.7,46.3,173.9,68.2,259.3,76.5c79.4,5.7,159.2-4.9,236.4-22.8
		c45.8-11,91.9-23.1,134.3-44c4.3-3.2,17.3-6.6,16.7-13.1c2.2-0.1,4.4-1.4,4.9-3.8c0.6-2.9-0.7-5.6-1.6-8.2
		C829.1,881.2,824.1,869.7,818.6,858.4z M614.3,656c10.5,16,19.9,32.7,28.4,49.7c4.4,9,9.6,18.6,7.3,29
		c-11.7,35.9-48.3,56.3-68.7,87.1c-0.1,0.1-0.1,0.2-0.2,0.3c5.7-41.9,12.8-83.7,20.4-125.2c0.5-2.7,3-16.7-2.2-15
		c0.5-14.9,1.2-29.8,1.9-44.7C606.1,643.4,609.9,649.2,614.3,656z M736.9,425.6c-5.4,35.4-21.7,77.4-57.4,91.6
		c-0.4,0.1-0.8,0.1-1.1,0.1c2.9-7.9,5.5-16.1,7.7-24.3c17.6-7.9,30.3-26.7,34.4-45.6c2.4-9.7,4.3-20,2-29.9
		c-0.5-1.3-0.7-3.3-2.2-3.8c2.3-5.4,6.6-9.9,8.8-15.2c-2.8-10.3-24.1,23.8-24.5,28.1c-2.8,11,0.2,22.7-4.5,33.3
		c-2.3,5.8-5.8,11.3-9.7,16.6c3.4-15,6.1-30.1,8.4-45.1c0.2-4.8,4.5-22.5,6.5-37.1C730.4,366.2,741.2,400.4,736.9,425.6z
		 M693.7,483.8c7.1-11.9,13.8-24.2,15.4-38.3c1.2-9.5,5.3-18.5,9-27.3C720.4,441.9,715.5,470.4,693.7,483.8z M263.4,285.1
		c-6.4-28.6-1.4-47.1,2.6-76.5c4.5-29.7,22.1-65.4,51.2-93.5c13.7-13.2-19.9-5.9-13.2-12.1c6.8-6.4,41.9-26.8,50.4-30.5
		c45.7-19.9,90.7-46.1,129.7-39.5c31,4.1,53.1,3.3,81.2,17.9c4.4,2.5,9.8,6.6,14.8,9.2c1.9,0.9,4.2,1.7,6.1,0.8
		c4-2.5,29.2-15.1,46,13.3c6.4,11,12.4,22.4,17.6,34c0.9,1.9,4.4,13.5,6.6,14.1c2.4,0.3,3.9-0.4,4.7-1.9c6.2,0.1,12.3-0.1,18.7,2
		c38.5,11.3,68.1,77.2,70.6,114.7c-1.8,41.9-21.9,80.7-31.4,121.2c-0.3,3.1-4,11-5.4,17.1c-2.7,1.3-5.2,3-7.4,5.1
		c-0.1-1.5-0.2-2.8-0.5-3.8c1.2-11.1-0.2-28.3-0.2-31.4c-0.7-12.2-4-23.9-6-35.9c1.8-3.5-1.1-6.6-3.6-8.6
		c-10.8-11.1-21.3-22.8-27.2-37.7c-4.7-10.8-7.3-23-8.9-34.8c-0.3-1.6-0.7-3.2-2.1-4.3c-2.3-2-5.9-1.2-7.1,1.6
		c-1.2,2.7-0.5,5.9-0.2,8.8c-3.8,5.2-6.6,6-11.1,1c-7.1-6.9-10.9-16.2-13.4-25.7c-3.2-11.5-5.4-23.7-7.5-35.6
		c-1-3.5-1.5-14.9-7.4-11c-0.7,1.2-1.1,2.4-1.5,3.8c-2.8,2.6-5.6,6.6-7.1,8c-10.9-28.1-42.1-10.5-59,1.7
		c-16.7,11.6-33.6,22-53.2,28.8c-9.1,2.2-31.5,14.9-32.1-2.2c0-0.8-0.1-1.8-0.4-2.6c6.4-6.3,11.7-13.6,15.2-21.8
		c0.6-1.7,2.8-5.2,0.1-5.9c-2.5,0.5-4,3.2-6.1,4.6c-12.6,12-25,24.5-40.9,32.1c-10.7,5.3-22.2,9.6-34,12c-2.9,0.4-1.6-4.3-1.6-6.2
		c0.1-5.6,3.1-11.3,2.6-16.8c-1-3.1-5.5-3.9-7.4-1.3l0,0c-14.4,18.9-36.2,30.7-58.5,38.8c-4.4,2.8-16.8,3.4-15,10.4
		c1.5,2.8,4,3.1,6.9,2.4c-0.7,23.2,0,47.1-15.6,66.5c-6.7,12.6-4.1,28.5-4.9,42.4c0,6.1,0.5,12.2,1.2,18.2c-0.3,0.7-0.6,1.5-0.8,2.5
		c-4.3-3.6-9.7-5.6-15.3-5.6c-0.9-2.8-2.2-5.7-2.3-7.9C274.5,338.5,268.9,311.8,263.4,285.1z M309.7,506.9
		c-30.7-19.6-38.1-60.6-40-94.5c0.4-8.2,0-16.9,4.8-24.1c7.9-8.9,20.9-2.5,24.6,7.2c0,0.1,0.1,0.1,0.1,0.2c1.7,15.7,6,35,6.8,39.6
		c3.6,15.9,7.1,32,11.3,48c-3.8-4.8-7.1-10.4-10.3-15.5c-12-23.5,1.7-49-21.9-68.4c-2.1-2.3-8.7-6.7-9.6-1.4c2,4.2,4.6,8.2,7.2,12.3
		c-2.9,25.4,0.9,57.7,24.1,71.5c2.4,3.9,5.3,7.5,8.6,10.8c1.5,1.4,3.2,1.2,4.5,0.2c2.2,7.6,4.5,15.1,7.2,22.5
		C321.2,513.2,315.7,510.5,309.7,506.9z M303.3,475.5c-16.6-13-18.7-37.9-16.6-58.9c1.8,2.8,3.5,5.6,5,8.5c5.4,8.2,5.3,18.7,6,28.3
		C298.1,461,300,468.6,303.3,475.5z M380.8,583.9c-40.4-41.5-52.2-99.9-64.4-155c-3.4-16.2-5.7-32.7-10.2-48.7
		c-1.4-17.3-2.3-35,1.4-52.3c3.9-11.3,11-20.4,16.6-31.1c6.9-15.4,5.9-33.5,3.9-50c0-0.5-0.1-1-0.2-1.4c0.6-0.2,1.2-0.4,1.7-0.5
		c19.1-6.3,36.8-16.6,51.5-30.3c-5,33.8,43.4,8.2,57.2,0.6c4-2.4,7.9-5.1,11.6-8c0.7,6.3,5.6,11.7,12,12.9
		c26.6,1.6,52.1-12.6,73.9-26.5c13.8-8.7,26.5-20.7,42.7-24.4c7.3-1.8,13.1,3.1,16.4,9.3c2.2,5,6.2,11.4,11.2,4.7
		c1-1.5,2.1-3,3.1-4.4c0.1,1.1,0.1,2.1,0.2,3.1c1.6,14.4,3.9,29.3,10.5,42.4c5.3,10.9,19.6,32,31.7,16.8c3.8,27.7,20,50.8,39.8,69.6
		c5,23.2,5.6,47.9,6.6,71.4c-0.2,0.7-0.4,1.3-0.7,1.9c-5.5,19.3-8.9,39-12.2,58.7c-7.4,42.9-17.4,87.2-45.7,121.8
		c-30.1,35.9-73.2,68.9-121.4,74.1c-1,0.1-2,0.1-3,0.2c0,0,0,0,0,0c-1.8-0.7-3.9-0.3-5.9-0.4C461.9,637.5,414.6,617.1,380.8,583.9z
		 M591.5,679c-1.7,0.3-3.3,1.5-4.2,3.2c-15.4,17.7-34.3,33.8-56.9,41.1c-34.9,9.3-74.4-1.2-101.6-24.9c-2.1-1.2-8.5-9.1-12.8-12.8
		c1.9-14,1.7-28.3-0.2-42.3c-0.8-3.2-1.2-12.4-2.5-20.4c29.8,17.2,64.1,26.9,97.9,27.4c1.6,0.3,3,0,4.1-0.7
		c23.8,1.9,52-11,76.3-27.1C590.3,641.4,590.2,660.2,591.5,679z M375.3,686.3c8.5-16.1,16.9-32,27.6-46.9c0.6-0.8,1.2-1.6,1.9-2.4
		c1.7,14.3,2.9,28.7,2.3,43.1c0,1.6-0.1,3.2-0.2,4.7c-2-1.1-3.9,1.7-3.9,6.7c1.8,33,11.8,65.1,16.7,97.8c2.6,14.8,5.2,29.6,7.6,44.4
		c-7.9-11.7-16.6-22.8-25.6-33.8c-13-18.7-49.8-42.4-48.4-65.5C357.7,717.4,367.8,702.2,375.3,686.3z M213.3,914.7
		c-12.3-6.1-24.7-13.1-36.3-20.7c-0.3-0.2-0.6-0.4-0.9-0.6c0.7-1.5,1.2-3,1.7-4.4c11.8-29.3,24.9-58.2,42.9-84.4
		c6.9-10,14.4-19.5,22.2-28.7c6.6,30.1,13.9,60.1,20.3,90.3c5,24.6,8.2,49.6,13.5,74C255.1,933.1,233.9,924.6,213.3,914.7z
		 M284.1,942.7c-11.5-56.8-24.5-113.8-38.5-170c35.2-40.3,78.9-73.6,124.8-100.8c-3.4,6.3-6.7,12.6-10,18.8
		c-6,13.2-15.3,25.6-17.9,40c-1.7,26.5,21.7,47.3,42.2,65.9c-5.4,6.1-9.3,13.8-14.1,20.3c-8.5,13.2-16.9,29.3-9.6,45
		c21.3,39.6,56.9,69.8,75.6,111C385.1,967.9,333.6,958.5,284.1,942.7z M396.7,897.4c-36.6-48.6-34.5-45.8-5.7-95.1
		c3.7,3.5,7.2,6.9,10.3,10.2c11.9,11.3,20.1,25.4,28.6,39.1c6.1,39.6,11,79.4,12.8,119.5C432.7,948.6,399.5,900.5,396.7,897.4z
		 M452.5,974.1c0.2-0.7,0.4-1.4,0.4-2.1c-0.4-11.3-1.2-22.6-1.8-33.9c-6.8-79.3-21-158.2-38.3-235.9c0.8-2.9,1.5-5.8,2-8.7
		c17.7,29.2,55.4,43,88.3,44c30.7,2.1,58.3-13.6,78.7-35.5c1.7-2.5,7-6.9,10.7-11.4c0.1,1.2,0.2,2.4,0.4,3.7
		c0.2,0.6,0.2,1.4,0.3,2.2c-0.6,2.3-1.1,4.5-1.9,6.6c-7,26.4-11.1,53.4-15.3,80.3c-9.9,62.1-17.7,125-17.5,188
		C523.3,975,487.8,976.2,452.5,974.1z M572,970c-1,0.1-2,0.3-3.1,0.4c0.2-13.2,0.7-26.3,1.4-39.4c1.8-31.4,5-62.7,8.9-94
		c9.6-13.3,21-24.4,32.9-36c7.8,17.8,21.4,35.4,18.4,55.7c-8.3,28.8-30,51.9-43.9,78.1c-5.5,9.5-10.1,19.6-13.7,29.9
		C572.3,966.3,571.4,968.2,572,970z M680,950.2c-33.4,8.1-67.4,14.6-101.6,19c1-1.9,1.6-4.1,2.7-5.8c5.9-14.4,13.5-27.9,22.2-40.7
		c38.3-55.8,56.2-64.9,17.2-129.3c51.4-47.7,49.1-67.8,23.6-110.5c40.4,29.9,78.9,62.8,112,100.8c-5.7,14.2-9.1,29.2-13.1,43.9
		c-9.5,36.5-17.1,73.7-19.7,111.3C708.9,943,694.5,946.8,680,950.2z M812.6,906.5c-26.7,12.5-54.8,22.4-83.3,30.7
		c0.5-6.2,1-12.4,1.6-18.6c1.7-21.6,5.7-42.6,10.6-63.8c5.4-22.5,9.3-45.6,18-67.1c2.9,3.4,5.9,6.8,8.7,10.2
		c24.1,31,41.9,66.4,57.1,102.4C821.2,900.6,816.6,905.3,812.6,906.5z"/>
	<path class="st4" d="M737.3,256.7c-2.5,9.5-5.7,18.8-9.5,27.8c-3.8-13.2-11.1-25.4-21-35c13,20.3,10.5,46.5,6,70.2
		c-2,10.6-4.3,21.2-7,31.6c-0.1-3-0.2-5.2-0.2-6.2c-0.8-12.2-3.9-23.9-6-35.9c1.8-3.5-1.1-6.5-3.6-8.7
		c-10.8-11.1-21.3-22.9-27.3-37.7c-4.7-10.8-7.3-22.9-8.9-34.8c-0.3-1.6-0.8-3.2-2.1-4.3c-2.3-2-5.9-1.2-7.1,1.6
		c-1.2,2.7-0.5,5.9-0.1,8.8c-3.8,5.2-6.6,6-11.1,1c-7.1-6.9-10.8-16.2-13.4-25.7c-3.2-11.5-5.4-23.7-7.5-35.6c-1-3.5-1.6-15-7.4-11
		c-0.7,1.2-1.2,2.4-1.5,3.8c-2.8,2.5-5.5,6.5-7.1,8c-11-28.1-42.1-10.5-59,1.7c-16.7,11.6-33.6,22-53.2,28.9
		c-9.1,2.2-31.5,14.9-32.2-2.3c0-0.8-0.1-1.7-0.4-2.6c6.3-6.3,11.7-13.6,15.2-21.9c0.6-1.6,2.8-5.2,0.1-5.9c-2.5,0.5-4,3.2-6.1,4.6
		c-12.6,12-25,24.5-41,32.1c-10.6,5.3-22.2,9.6-33.9,12c-2.9,0.4-1.6-4.4-1.6-6.2c0.1-5.5,3.1-11.3,2.6-16.8c-1-3.1-5.5-3.9-7.4-1.3
		c-14.4,18.9-36.3,30.6-58.4,38.8c-4.4,2.8-16.8,3.4-15,10.4c1.6,2.8,4,3.1,6.9,2.4c-0.7,23.2,0,47.2-15.6,66.6
		c-6.7,12.6-4.1,28.4-4.9,42.4c0,6.1,0.5,12.2,1.2,18.2c-0.3,0.7-0.6,1.5-0.8,2.5c-2.7-2.3-5.8-3.9-9.2-4.8
		c-6.5-40.2-12.3-80.6-13.1-121.4c-0.2-12.3,0-24.8,3.7-36.5c7.1-22.4,25.5-39.1,43.1-54.6c-7.1,4.4-14.9,7.6-23,9.5
		c-1.6,0.4-3.4,0.7-4.7-0.3c-0.9-0.7-2-1.8-1.6-2.8c3.9-10.6,11.6-22.5,19.2-30.6c36.9-39.6,79.9-66.4,133.6-73
		c53.7-6.6,110.6,9.4,150.5,46.1c-2.8-10.7-4.4-21.6-4.9-32.6c-0.2-5.1,1.8-12.1,6.8-11.4c2.3,0.3,3.9,2.3,5.3,4
		c15.7,20,29.5,41.5,41.5,63.9c13.7-3.8,27.2,2.4,38.7,10.8c11.5,8.4,20,20.3,27.7,32.3c7,10.8,13.5,22,19.5,33.4
		c3.5,6.7,6.9,13.6,8,21.1C741.3,240,739.5,248.5,737.3,256.7z"/>
	<path class="st8" d="M591.7,622.6c-0.5,6.8-0.8,13.6-1,20.4c-19.4,15.3-49.4,32-87.8,32c-33.8,0-64.3-15.1-86.9-30.8
		c0-0.3,0-0.6-0.1-0.9c-0.8-3.2-1.2-12.4-2.5-20.4c29.8,17.2,64,26.9,97.9,27.4c1.6,0.3,3,0,4.1-0.7
		C539.1,651.5,567.4,638.6,591.7,622.6z"/>
	<path class="st9" d="M377.2,806.9c-17.4-21.9-40.1-50.5-48.3-61.5c-7.3-9.8-29.9-9.4-49.8-6.8c27.9-25.5,59.1-47.6,91.4-66.9
		c-3.4,6.3-6.7,12.6-10,18.8c-6,13.2-15.3,25.6-17.9,40.1c-1.6,26.5,21.8,47.3,42.2,65.9C382,799.7,379.6,803.3,377.2,806.9z"/>
	<path class="st9" d="M436.7,972.8c-8.6-0.8-17.1-1.7-25.7-2.8c-18.4-30.7-41.3-68.1-49.2-78.7c-11.6-15.5-4.9-42.5-2.2-51.5
		c-1.9,7.2-2,14.7,1.5,22.1C382.4,901.4,418.1,931.6,436.7,972.8z"/>
	<path class="st9" d="M642.2,847c4.6,14.3,9,31.9,6.4,39.6c-2.9,8.6-22.9,48.1-38.3,78c-10.6,1.7-21.3,3.3-32,4.7
		c1-1.9,1.6-4.1,2.7-5.8c5.9-14.4,13.5-27.9,22.2-40.7C627.5,887.4,643.6,870.7,642.2,847z"/>
	<path class="st9" d="M733.7,759.7c-15.2-7.6-45.2-21.2-52.2-14.2c-5.4,5.4-32.2,35.2-54.2,59.9c-2.1-3.8-4.4-7.7-7-11.9
		c51.4-47.7,49.1-67.8,23.6-110.5C675.7,706.3,706.1,731.6,733.7,759.7z"/>
</g>
</svg>
