<?xml version="1.0" encoding="utf-8"?>
<!-- Generator: Adobe Illustrator 26.0.1, SVG Export Plug-In . SVG Version: 6.00 Build 0)  -->
<svg version="1.1" id="Layer_1" xmlns="http://www.w3.org/2000/svg" xmlns:xlink="http://www.w3.org/1999/xlink" x="0px" y="0px"
	 viewBox="0 0 1000 1000" style="enable-background:new 0 0 1000 1000;" xml:space="preserve">
<style type="text/css">
	.st0{fill:#1A1A1A;}
	.st1{fill:#26073D;}
	.st2{fill:#FFDECC;}
	.st3{fill:#FC9595;}
	.st4{fill:#333333;}
	.st5{fill:#D9171A;}
	.st6{fill:#ECFFD2;}
	.st7{fill:#1E1E1E;}
	.st8{opacity:0.15;}
	.st9{fill:#B7131B;}
	.st10{fill:#FFFFFF;}
</style>
<path class="st0" d="M687.8,194.5c0,0,39.9-29.9,24.8-83.6c-1.2,0.5-0.6,20.5-4,25c0,0,2.4-23.8-6.7-30.4c-0.6,0.4,1.9,9.2,1.1,12.8
	c-38-54.7-66.7-88.1-173.7-93.1c0.4,4.1,37.8,8.1,49.6,18.8C487,22.8,480.5,7,384.1,31.1c0.4,2.5,30.8,0.8,64.4,10.9
	c0,0-57.6-9.8-108.7,14.2s-73.4-14-73.4-14c-0.7,2.2,3.6,28.1,31.5,30.6c0,0-13.9,5.6-24.1-6.5c0,0-7.9,28.1,19.2,55.3
	c0,0-9.3-1.6-15.2-10.8c0,0-2.2,32.5,22.9,52.9c0,0,10.2,8.2,6,14.8c0,0-26.8,55.2-30.3,85.1l47.7-75.8l9.9-20.5l36.5-25.2
	L505,124.3l129.3,20.1l14.8,36.8L687.8,194.5z"/>
<path class="st1" d="M448.4,986.2c0,0,0.7,0.1,0.7,0.1c-0.1,0-0.1,0-0.2,0C448.7,986.2,448.6,986.2,448.4,986.2z"/>
<path class="st2" d="M690.2,437.6c-1.9,13.5-5.9,29.9-6.1,34.4c-2.1,13.9-4.6,27.9-7.8,41.8c3.6-4.9,6.8-10,9-15.4
	c4.4-9.8,1.6-20.7,4.2-30.9c0.4-4,20.1-35.6,22.8-26c-2.1,4.9-6,9.1-8.1,14.1c1.4,0.5,1.6,2.3,2.1,3.5c2.2,9.2,0.4,18.7-1.9,27.7
	c-3.7,17.5-15.5,35-31.9,42.2c-2.1,7.6-4.5,15.1-7.2,22.5c0.4,0,0.7,0,1.1-0.1c33.1-13.2,48.2-52.1,53.2-85
	C723.6,443.1,713.6,411.4,690.2,437.6z"/>
<path class="st3" d="M702.2,459.7c-3.5,8.2-7.2,16.5-8.4,25.3c-1.5,13-7.6,24.4-14.2,35.5C699.8,508,704.3,481.6,702.2,459.7z"/>
<path class="st4" d="M732.1,291.7c-1.7,38.8-20.3,74.8-29,112.4c-0.3,2.8-3.7,10.2-5,15.8c-2.5,1.2-4.8,2.8-6.8,4.7
	c-0.1-1.4-0.2-2.6-0.5-3.5c0.7-7.2,0.3-17.1,0-23.4c-0.1-2.8-0.2-4.8-0.2-5.7c-0.7-11.3-3.7-22.1-5.5-33.3c1.7-3.2-1-6.1-3.4-8
	c-10-10.3-19.7-21.2-25.3-34.9c-4.4-10-6.8-21.3-8.3-32.3c-0.3-1.5-0.7-3-1.9-4c-2.1-1.8-5.5-1.1-6.6,1.5c-1.1,2.5-0.4,5.5-0.1,8.2
	c-3.5,4.8-6.1,5.5-10.3,0.9c-6.6-6.4-10-15-12.4-23.8c-3-10.6-5-22-6.9-33c-0.9-3.2-1.4-13.9-6.8-10.2c-0.7,1.1-1.1,2.3-1.4,3.5
	c-2.6,2.4-5.1,6.1-6.6,7.5c-10.2-26.1-39.1-9.7-54.7,1.6c-15.5,10.8-31.2,20.4-49.3,26.8c-8.5,2-29.2,13.8-29.8-2.1
	c0-0.8-0.1-1.6-0.3-2.4c5.9-5.9,10.9-12.6,14.1-20.3c0.5-1.5,2.6-4.8,0.1-5.4c-2.4,0.4-3.7,3-5.6,4.3c-11.6,11.2-23.2,22.7-38,29.8
	c-9.9,4.9-20.6,8.9-31.5,11.2c-2.7,0.3-1.5-4.1-1.5-5.8c0.1-5.1,2.9-10.5,2.4-15.6c-0.9-2.8-5.1-3.6-6.9-1.2
	c-13.4,17.5-33.6,28.4-54.2,36c-4.1,2.6-15.6,3.1-13.9,9.7c1.4,2.6,3.7,2.8,6.4,2.2c-0.7,21.5,0,43.7-14.5,61.7
	c-6.2,11.7-3.8,26.4-4.5,39.3c0,5.6,0.4,11.3,1.1,16.9c-0.3,0.6-0.5,1.4-0.7,2.4c-2.5-2.1-5.4-3.6-8.5-4.4c-1.8-0.5-3.7-0.8-5.6-0.8
	c-0.8-2.5-2.1-5.2-2.2-7.3c-6.5-24.5-11.6-49.3-16.7-74.1c-5.9-26.5-3.5-51.3,0.3-78.6c4-26.4,20.9-56.3,44.5-83.3
	c5.6-6.4-16.6,0.1-10.4-5.9c8.6-8.2,46-28.7,55.5-35.8c36.4-27,77.9-43.7,112.6-37.8c28.8,3.8,51.4,10.6,77.5,24.2
	c1.8,1.1,30.7-4.6,54.5,9.2c12.1,7,18.1,39.9,29.4,46.8c16.3,9.9,28.6,10.7,32.5,14.8C707.6,207.6,730,260.4,732.1,291.7z"/>
<path class="st3" d="M302.2,458.1c-1.9,19.5,0.1,42.6,15.4,54.6c-3-6.4-4.8-13.4-5.3-20.5c-0.6-8.9-0.5-18.6-5.5-26.3
	C305.4,463.3,303.8,460.7,302.2,458.1z"/>
<path class="st2" d="M329,528.8c-3.1-3-5.7-6.4-8-10c-21.6-12.8-25.1-42.7-22.4-66.3c-2.4-3.7-4.8-7.5-6.7-11.4
	c0.8-4.9,7-0.8,8.9,1.3c21.8,18,9.1,41.6,20.3,63.4c3,4.8,6,9.9,9.5,14.3c-3.9-14.8-7.2-29.8-10.5-44.5c-0.7-4.3-4.7-22.2-6.3-36.7
	c0-0.1-0.1-0.1-0.1-0.2c-3.4-9-15.4-15-22.8-6.7c-4.5,6.6-4.2,14.7-4.5,22.3c1.7,31.4,8.6,69.4,37.1,87.6c5.5,3.3,10.6,5.9,16.2,8
	c-2.4-6.9-4.6-13.8-6.6-20.9C332,529.9,330.4,530.1,329,528.8z"/>
<path class="st5" d="M737.3,798.5c-5.2,13.2-8.5,27.1-12.1,40.8c-8.8,33.8-15.8,68.3-18.3,103.2c-13.3,3.7-26.7,7.2-40.1,10.4
	c-21.3,5.1-42.9,9.6-64.6,13.3c-9.9,1.6-19.7,3.1-29.6,4.4c1-1.7,1.5-3.8,2.5-5.4c5.4-13.3,12.5-25.8,20.6-37.7
	c22.5-32.7,37.4-48.2,36.1-70.2c-0.6-10.5-4.9-22.5-13.7-38.6c-1.9-3.5-4.1-7.1-6.5-11.1c47.7-44.2,45.6-62.9,21.8-102.4
	c29.4,21.7,57.6,45.2,83.2,71.2C723.8,783.4,730.7,790.8,737.3,798.5z"/>
<path class="st5" d="M740.5,802.2c-8.1,19.9-11.6,41.4-16.6,62.2c-4.5,19.6-8.3,39.1-9.8,59.1c-0.5,5.8-1,11.5-1.5,17.3
	c26.5-7.7,52.5-16.8,77.3-28.5c3.6-1.2,7.9-5.5,11.7-5.7c-14.2-33.4-30.6-66.2-53-94.9C746,808.5,743.2,805.4,740.5,802.2z"/>
<path class="st5" d="M592.2,704.1c4.8-1.6,2.5,11.4,2,13.9c-7.1,38.5-13.7,77.2-18.9,116.1c0.1-0.1,0.1-0.2,0.2-0.2
	c18.9-28.6,52.9-47.4,63.7-80.7c2.1-9.7-2.7-18.5-6.8-26.9c-7.9-15.8-16.7-31.3-26.3-46.1c-4.1-6.4-7.6-11.7-12.1-17.4
	C593.3,676.5,592.6,690.3,592.2,704.1z"/>
<path class="st2" d="M584.1,668c-0.2,11.1,0,22.3,0.8,33.4c-1.6,0.2-3,1.4-3.8,2.9c-14.3,16.4-31.8,31.3-52.8,38.1
	c-32.3,8.6-69-1.1-94.2-23.1c-1.9-1.1-7.8-8.5-11.9-11.8c1.7-12.8,1.6-25.7-0.1-38.4c0-0.3,0-0.6-0.1-0.8c-0.7-3-1.1-11.5-2.3-18.9
	c27.6,15.9,59.4,24.9,90.8,25.4c1.5,0.3,2.7,0,3.8-0.6c22,1.7,48.2-10.2,70.7-25.1C584.5,655.4,584.2,661.7,584.1,668z"/>
<path class="st5" d="M580.4,938.5c12.9-24.3,33-45.7,40.7-72.4c2.8-18.9-9.8-35.1-17.1-51.7c-11.1,10.7-21.6,21.1-30.5,33.4
	c-3.7,29-6.6,58-8.3,87.1c-0.6,12.2-1.1,24.4-1.3,36.5c0.9-0.1,1.9-0.2,2.8-0.3c-0.5-1.6,0.3-3.4,0.9-4.9
	C571.1,956.7,575.3,947.3,580.4,938.5z"/>
<path class="st5" d="M261.6,791.3c-7.3,8.5-14.2,17.4-20.6,26.6c-16.7,24.3-28.8,51-39.8,78.2c-0.5,1.2-1,2.7-1.6,4.1
	c0.3,0.2,0.6,0.4,0.9,0.5c10.7,7.1,22.3,13.6,33.6,19.2c19.1,9.2,38.8,17,58.9,23.7c-5-22.7-7.9-45.9-12.6-68.6
	C274.5,847,267.7,819.2,261.6,791.3z"/>
<path class="st5" d="M408.8,813.6c8.3,10.2,16.4,20.4,23.7,31.3c-2.2-13.7-4.6-27.4-7-41.2c-4.6-30.3-13.8-60-15.5-90.6
	c0.1-4.7,1.8-7.3,3.7-6.2c0.1-1.5,0.1-2.9,0.2-4.4c0.5-13.4-0.5-26.7-2.1-40c-0.6,0.7-1.2,1.4-1.7,2.2
	c-9.9,13.8-17.7,28.6-25.6,43.5c-6.9,14.7-16.3,28.8-20.4,44.6C362.6,774.2,396.8,796.3,408.8,813.6z"/>
<path class="st5" d="M441.3,973.8c-7.9-0.7-15.9-1.6-23.8-2.6c-39.8-5-79.4-13.1-117.6-25.2c-10.7-52.7-22.8-105.5-35.7-157.6
	c9.7-11.1,20.1-21.6,31-31.5c25.8-23.7,54.7-44.2,84.7-62c-3.1,5.8-6.2,11.7-9.2,17.4c-5.6,12.2-14.2,23.7-16.6,37.1
	c-1.5,24.5,20.2,43.8,39.1,61.1c-2.6,2.9-4.8,6.3-7,9.6c-2,3.1-3.9,6.3-6,9.2c-4.1,6.5-8.3,13.7-10.2,21.2
	c-1.8,6.7-1.8,13.6,1.4,20.5C391,907.6,424,935.6,441.3,973.8z"/>
<path class="st6" d="M584.6,723.7c0.7-2,1.2-4.1,1.7-6.1c0-0.7-0.1-1.5-0.2-2.1c-0.1-1.1-0.2-2.3-0.3-3.4c-3.5,4.1-8.4,8.2-10,10.5
	c-18.9,20.3-44.5,34.9-73,32.9c-30.5-0.9-65.5-13.8-81.9-40.8c-0.5,2.7-1.2,5.4-1.9,8.1c16,72,29.2,145.2,35.5,218.7
	c0.6,10.5,1.3,21,1.7,31.5c0,0.7-0.1,1.3-0.4,1.9c32.8,1.9,65.6,0.8,98.3-2.5c-0.2-58.5,7.1-116.7,16.2-174.3
	C574.3,773.2,578.1,748.2,584.6,723.7z"/>
<path class="st5" d="M408.6,825.2c-2.9-3.1-6.1-6.3-9.6-9.5c-26.7,45.7-28.7,43.1,5.3,88.2c2.6,2.8,33.4,47.5,42.7,68.4
	c-1.7-37.2-6.2-74.1-11.8-110.8C427.2,848.7,419.6,835.7,408.6,825.2z"/>
<path class="st1" d="M377.3,351.5c0,0.1-0.1,0.2-0.1,0.3c0,0,0,0,0,0C377.2,351.7,377.3,351.6,377.3,351.5z"/>
<path class="st0" d="M795.4,867.7c-17.3-36.3-41.3-69.3-69.9-97.7c-30.8-30.2-63.6-59.4-100-82.7c-1.4-0.6-2.6-1-3.7-1.2
	c-3.3-5.3-6.9-11-10.6-17.1c-2.5-3.1-10.6-16.2-16.6-18.3c0.1-2.9,0.3-5.7,0.4-8.6c10.4-7.6,19.7-15.6,26.8-22.5
	c18.6-17.2,31.5-38.1,40.8-60.8c1.5,0.8,3.2,1.2,4.6,1.2c18.9-2.7,35.6-20.6,44.6-36.7c12.9-25.5,32.4-81.5,5.5-102.7
	c-3.3-2.2-6.9-3-10.5-2.9c2.1-6.4,4.1-12.8,6.5-19.1c13-37.2,16.3-73,19.5-112.5c-0.1-18.1-3.7-37.4-11.5-53.3
	c-9-17.1-17.3-36-33.4-47.5c-2.3-1.6-13.9-6.9-23.7-10.1c3.3-25-23.5-47.2-15.2-31.5c7.1,13.5-1,27.6-6.5,13
	c-23.9-63.1-67.8-42.9-65.2-35.9c-21.7-18.5-51-27-63.6-31.2c-34.8-10.8-65.9-2.8-98.9,14.5c-29,12.8-97.3,29.8-116.9,83.1
	c-2.6,7,39.2-25.9,12,3.3c-15.2,16.3-15.6,22.6-26,44.5c-21.9,51.5-4.8,130.2,12.1,183.9c-1.9,0.6-6.5,1.4-8.2,2.5
	c-18.8,14.2-10.2,52.8-5.9,72.9c7.9,33.4,27.4,59.9,62.1,67.9c0.2,0.1,0.5,0.1,0.7,0.2c7,17.2,15.9,33.4,28,47.9
	c10.5,12.6,22.9,23.6,36.7,32.9c0.5,3.4,1,6.9,1.4,10.3c-1.8,1-3.4,2.5-4.8,3.8c-7,7.4-12.9,15.7-18.2,24.5c-2.3,0.7-4.6,1.8-6,2.4
	c-27.8,12.3-51.8,31.4-75.3,50.5c-42.1,34-78.5,75.8-100.7,125.6c-5.7,12.5-10.8,25.2-16.2,37.8c-1.2,2.6,0.2,5.8,2.8,6.9
	c0.9,0.4,1.7,0.4,2.4,0.4c4.2,3.7,9.9,7.3,12.3,9.1c67.4,42.9,161.2,63.2,240.4,70.9c73.6,5.3,147.6-4.5,219.2-21.2
	c42.5-10.2,85.2-21.4,124.6-40.8c4-3,16.1-6.1,15.5-12.2c2-0.1,4.1-1.3,4.6-3.5c0.6-2.6-0.7-5.2-1.5-7.6
	C805.1,888.9,800.4,878.2,795.4,867.7z M606,680.1c9.7,14.8,18.4,30.3,26.3,46.1c4.1,8.4,8.9,17.2,6.8,26.9
	c-10.8,33.3-44.8,52.2-63.7,80.7c-0.1,0.1-0.1,0.2-0.2,0.2c5.3-38.9,11.9-77.6,18.9-116.1c0.4-2.5,2.8-15.5-2-13.9
	c0.5-13.8,1.1-27.6,1.8-41.4C598.4,668.4,601.9,673.8,606,680.1z M719.6,466.5c-5,32.8-20.1,71.8-53.2,85c-0.3,0.1-0.7,0.1-1.1,0.1
	c2.7-7.4,5.1-14.9,7.2-22.5c16.3-7.3,28.1-24.8,31.9-42.2c2.2-9,4-18.5,1.9-27.7c-0.5-1.2-0.7-3-2.1-3.5c2.1-5,6.1-9.2,8.1-14.1
	c-2.6-9.6-22.4,22.1-22.8,26c-2.6,10.2,0.2,21-4.2,30.9c-2.2,5.4-5.4,10.5-9,15.4c3.2-13.9,5.6-27.9,7.8-41.8
	c0.2-4.4,4.1-20.9,6.1-34.4C713.6,411.4,723.6,443.1,719.6,466.5z M679.6,520.5c6.6-11.1,12.8-22.5,14.2-35.5
	c1.1-8.8,4.9-17.2,8.4-25.3C704.3,481.6,699.8,508,679.6,520.5z M283.4,336.2c-5.9-26.5-1.3-43.7,2.4-70.9
	c4.2-27.6,17.7-60.7,44.7-86.7c12.7-12.3-18.5-5.4-12.3-11.2c6.3-5.9,38.8-24.8,46.8-28.3c42.4-18.5,84.1-42.7,120.3-36.6
	c28.8,3.8,49.2,3,75.3,16.6c4.1,2.3,9.1,6.1,13.7,8.5c1.7,0.9,3.8,1.6,5.7,0.7c3.7-2.3,27.1-14,42.6,12.3
	c5.9,10.2,11.5,20.8,16.3,31.5c0.8,1.8,4.1,12.5,6.1,13c2.3,0.3,3.7-0.4,4.4-1.8c5.8,0.1,11.4-0.1,17.3,1.9
	c35.7,10.4,54.4,71.6,56.7,106.3c-1.7,38.8-11.6,74.9-20.3,112.4c-0.3,2.9-3.7,10.2-5,15.8c-2.5,1.2-4.8,2.8-6.9,4.7
	c-0.1-1.4-0.2-2.6-0.5-3.5c1.1-10.3-0.2-26.2-0.2-29.1c-0.7-11.3-3.7-22.2-5.5-33.3c1.7-3.2-1-6.1-3.4-8
	c-10-10.3-19.7-21.2-25.3-34.9c-4.3-10-6.8-21.3-8.3-32.3c-0.3-1.5-0.7-3-1.9-4c-2.1-1.8-5.5-1.1-6.6,1.5c-1.1,2.5-0.4,5.5-0.1,8.2
	c-3.5,4.8-6.1,5.5-10.3,0.9c-6.6-6.4-10.1-15-12.4-23.8c-3-10.6-5-22-7-33c-0.9-3.2-1.4-13.9-6.8-10.2c-0.6,1.1-1.1,2.3-1.4,3.5
	c-2.6,2.4-5.2,6.1-6.6,7.4c-10.1-26-39.1-9.7-54.7,1.6c-15.5,10.8-31.2,20.4-49.3,26.7c-8.5,2.1-29.2,13.8-29.8-2.1
	c0-0.8-0.1-1.6-0.4-2.4c5.9-5.8,10.9-12.6,14.1-20.2c0.5-1.5,2.6-4.8,0.1-5.4c-2.3,0.4-3.7,2.9-5.6,4.3
	c-11.6,11.2-23.2,22.7-37.9,29.8c-9.9,4.9-20.6,8.9-31.5,11.1c-2.7,0.4-1.5-4-1.5-5.7c0.1-5.2,2.9-10.5,2.4-15.6
	c-0.9-2.9-5.1-3.6-6.9-1.2l0,0c-13.3,17.5-33.6,28.4-54.2,36c-4.1,2.6-15.5,3.1-13.9,9.7c1.4,2.6,3.8,2.9,6.4,2.2
	c-0.7,21.5,0,43.7-14.5,61.7c-6.2,11.7-3.8,26.4-4.5,39.3c0,5.6,0.4,11.3,1.1,16.9c-0.3,0.6-0.6,1.4-0.7,2.3
	c-3.9-3.3-6.2-5.2-11.4-5.2c-0.8-2.6-2.1-5.3-2.2-7.3C293.7,385.8,288.5,361,283.4,336.2z M323.6,541.9
	c-28.5-18.2-35.4-56.1-37.1-87.6c0.3-7.6,0-15.7,4.5-22.3c7.3-8.3,19.4-2.3,22.8,6.7c0,0.1,0.1,0.1,0.1,0.2
	c1.6,14.6,5.6,32.5,6.3,36.7c3.3,14.7,6.6,29.7,10.5,44.5c-3.5-4.5-6.5-9.6-9.5-14.3c-11.2-21.8,1.5-45.4-20.3-63.4
	c-2-2.1-8.1-6.2-8.9-1.3c1.9,3.9,4.2,7.6,6.7,11.4c-2.7,23.5,0.8,53.5,22.4,66.3c2.3,3.6,4.9,7,8,10c1.4,1.3,3,1.1,4.2,0.2
	c2,7,4.2,14,6.6,20.9C334.3,547.7,329.2,545.2,323.6,541.9z M317.6,512.7c-15.4-12.1-17.4-35.1-15.4-54.6c1.6,2.6,3.2,5.2,4.6,7.9
	c5,7.6,4.9,17.4,5.5,26.3C312.8,499.4,314.6,506.3,317.6,512.7z M389.5,613.3c-37.4-38.4-48.4-92.6-59.7-143.7
	c-3.2-15.1-5.3-30.3-9.4-45.1c-1.3-16.1-2.1-32.5,1.3-48.5c3.6-10.4,10.2-18.9,15.4-28.8c6.4-14.3,5.5-31.1,3.6-46.3
	c0-0.4-0.1-0.9-0.2-1.3c0.6-0.2,1.1-0.4,1.6-0.4c17.7-5.8,34.1-15.4,47.8-28.1c-4.6,31.3,40.2,7.6,53,0.6c3.7-2.2,7.3-4.7,10.8-7.4
	c0.7,5.8,5.2,10.9,11.1,11.9c24.7,1.5,48.3-11.7,68.5-24.6c12.8-8,24.5-19.1,39.6-22.6c6.8-1.7,12.2,2.8,15.2,8.6
	c2.1,4.7,5.7,10.6,10.4,4.4c1-1.4,1.9-2.7,2.9-4.1c0.1,1,0.1,2,0.1,2.9c1.5,13.4,3.6,27.2,9.7,39.3c4.9,10.1,18.2,29.6,29.3,15.6
	c3.5,25.7,18.5,47.1,36.9,64.6c4.7,21.5,5.2,44.4,6.1,66.2c-0.2,0.6-0.4,1.2-0.6,1.8c-5.1,17.9-8.2,36.1-11.3,54.4
	c-6.9,39.8-16.1,80.8-42.4,112.9c-27.9,33.3-67.9,63.9-112.5,68.7c-0.9,0.1-1.8,0.1-2.7,0.2c0,0,0,0,0,0c-1.7-0.6-3.6-0.3-5.4-0.4
	C464.7,662.9,420.8,644,389.5,613.3z M584.9,701.4c-1.6,0.2-3,1.4-3.9,2.9c-14.2,16.4-31.8,31.3-52.8,38.1
	c-32.3,8.6-69-1.1-94.1-23.1c-1.9-1.1-7.8-8.5-11.9-11.8c1.8-13,1.6-26.3-0.2-39.3c-0.8-3-1.1-11.5-2.3-18.9
	c27.6,15.9,59.4,25,90.8,25.4c1.5,0.3,2.7,0,3.8-0.6c22,1.7,48.2-10.2,70.7-25.1C583.7,666.5,583.6,684,584.9,701.4z M384.4,708.2
	c7.9-14.9,15.7-29.7,25.6-43.5c0.5-0.7,1.1-1.5,1.7-2.2c1.6,13.2,2.7,26.6,2.1,40c0,1.5-0.1,2.9-0.2,4.4c-1.9-1.1-3.6,1.5-3.7,6.2
	c1.7,30.6,10.9,60.4,15.5,90.6c2.4,13.7,4.8,27.4,7,41.2c-7.3-10.9-15.4-21.2-23.7-31.3c-12-17.3-46.2-39.3-44.9-60.8
	C368.1,737,377.4,722.9,384.4,708.2z M234.2,919.9c-11.4-5.7-22.9-12.2-33.6-19.2c-0.3-0.2-0.6-0.4-0.9-0.5c0.6-1.4,1.1-2.8,1.6-4.1
	c11-27.2,23-53.9,39.8-78.2c6.4-9.2,13.3-18.1,20.6-26.6c6.1,27.9,12.9,55.8,18.9,83.7c4.6,22.8,7.6,46,12.6,68.6
	C273,936.9,253.3,929.1,234.2,919.9z M299.9,945.9c-10.7-52.6-22.7-105.5-35.7-157.6c32.7-37.4,73.2-68.2,115.7-93.5
	c-3.1,5.8-6.2,11.7-9.2,17.4c-5.6,12.2-14.2,23.7-16.6,37.1c-1.5,24.5,20.2,43.8,39.1,61.1c-5,5.7-8.7,12.8-13,18.8
	c-7.9,12.3-15.7,27.2-8.9,41.7c19.7,36.7,52.8,64.8,70.1,102.9C393.5,969.2,345.7,960.5,299.9,945.9z M404.3,903.9
	c-33.9-45.1-32-42.5-5.3-88.2c3.4,3.2,6.7,6.4,9.6,9.5c11.1,10.5,18.6,23.5,26.5,36.3c5.7,36.7,10.2,73.6,11.8,110.8
	C437.6,951.4,406.8,906.7,404.3,903.9z M455.9,975c0.2-0.6,0.4-1.3,0.4-1.9c-0.4-10.5-1.1-21-1.7-31.5
	c-6.3-73.5-19.5-146.7-35.5-218.7c0.7-2.7,1.4-5.4,1.9-8.1c16.4,27,51.4,39.9,81.9,40.8c28.4,1.9,54.1-12.7,73-32.9
	c1.6-2.3,6.5-6.4,10-10.5c0.1,1.1,0.2,2.3,0.3,3.4c0.2,0.6,0.2,1.3,0.2,2.1c-0.5,2.1-1.1,4.2-1.7,6.1c-6.5,24.5-10.3,49.5-14.2,74.5
	c-9.1,57.6-16.4,115.9-16.2,174.3C521.6,975.8,488.7,976.9,455.9,975z M566.7,971.2c-0.9,0.1-1.9,0.2-2.8,0.3
	c0.2-12.2,0.7-24.4,1.3-36.5c1.7-29.1,4.6-58.2,8.3-87.1c8.9-12.3,19.5-22.6,30.5-33.4c7.2,16.5,19.9,32.8,17.1,51.7
	c-7.7,26.7-27.8,48.1-40.7,72.4c-5.1,8.8-9.3,18.2-12.7,27.7C567.1,967.8,566.2,969.5,566.7,971.2z M666.9,952.9
	c-31,7.5-62.5,13.5-94.2,17.6c0.9-1.7,1.5-3.8,2.5-5.4c5.4-13.3,12.5-25.9,20.6-37.7c35.5-51.7,52.1-60.2,15.9-119.9
	c47.7-44.2,45.5-62.9,21.8-102.4c37.5,27.7,73.2,58.2,103.8,93.4c-5.3,13.2-8.5,27.1-12.1,40.7c-8.8,33.9-15.8,68.3-18.3,103.2
	C693.6,946.2,680.3,949.6,666.9,952.9z M789.8,912.4C765,924,739,933.1,712.6,940.8c0.5-5.8,0.9-11.5,1.5-17.3
	c1.5-20,5.3-39.5,9.8-59.1c5-20.8,8.6-42.3,16.6-62.2c2.7,3.2,5.4,6.3,8,9.5c22.3,28.7,38.8,61.6,53,94.9
	C797.7,906.9,793.5,911.2,789.8,912.4z"/>
<path class="st7" d="M711.7,309.9c-2.4,8.8-1.6,17.4-5.1,25.8c-3.5-12.2-5.7-23.6-14.8-32.5c12.1,18.8,9.8,43.1,5.6,65
	c-1.9,9.9-4,19.6-6.5,29.3c-0.1-2.8-0.2-4.8-0.2-5.7c-0.7-11.3-3.7-22.1-5.5-33.3c1.7-3.2-1-6.1-3.4-8c-10-10.3-19.7-21.2-25.3-34.9
	c-4.4-10-6.8-21.3-8.3-32.3c-0.3-1.5-0.7-3-1.9-4c-2.1-1.8-5.5-1.1-6.6,1.5c-1.1,2.5-0.4,5.5-0.1,8.2c-3.5,4.8-6.1,5.5-10.3,0.9
	c-6.6-6.4-10-15-12.4-23.8c-3-10.6-5-22-6.9-33c-0.9-3.2-1.4-13.9-6.8-10.2c-0.7,1.1-1.1,2.3-1.4,3.5c-2.6,2.4-5.1,6.1-6.6,7.5
	c-10.2-26.1-39.1-9.7-54.7,1.6c-15.5,10.8-31.2,20.4-49.3,26.8c-8.5,2-29.2,13.8-29.8-2.1c0-0.8-0.1-1.6-0.3-2.4
	c5.9-5.9,10.9-12.6,14.1-20.3c0.5-1.5,2.6-4.8,0.1-5.4c-2.4,0.4-3.7,3-5.6,4.3c-11.6,11.2-23.2,22.7-38,29.8
	c-9.9,4.9-20.6,8.9-31.5,11.2c-2.7,0.3-1.5-4.1-1.5-5.8c0.1-5.1,2.9-10.5,2.4-15.6c-0.9-2.8-5.1-3.6-6.9-1.2
	c-13.4,17.5-33.6,28.4-54.2,36c-4.1,2.6-15.6,3.1-13.9,9.7c1.4,2.6,3.7,2.8,6.4,2.2c-0.7,21.5,0,43.7-14.5,61.7
	c-6.2,11.7-3.8,26.4-4.5,39.3c0,5.6,0.4,11.3,1.1,16.9c-0.3,0.6-0.5,1.4-0.7,2.4c-2.5-2.1-5.4-3.6-8.5-4.4
	c-6.1-37.3-11.4-74.8-12.1-112.5c-0.2-11.4,0-23,3.4-33.8c6.5-20.8,23.6-36.2,40-50.6c-6.6,4.1-13.8,7-21.4,8.8
	c-1.5,0.3-3.2,0.6-4.4-0.3c-0.8-0.6-1.9-1.7-1.5-2.6c3.6-9.8,10.7-20.8,17.8-28.3c34.2-36.7,74.1-61.5,123.9-67.6
	c49.8-6.1,102.6,8.7,139.5,42.7c-2.6-9.9-4.1-20.1-4.6-30.3c-0.2-4.7,1.7-11.2,6.3-10.6c2.1,0.3,3.6,2.1,4.9,3.7
	c14.5,18.6,27.4,38.4,38.4,59.2c12.7-3.5,25.2,2.2,35.9,10C682,214,689.8,225,697,236.1c6.5,10,4.2,20.4,9.7,30.9
	c3.3,6.2,2.7,12.6,3.7,19.6C711.6,294.4,713.7,302.3,711.7,309.9z"/>
<path class="st8" d="M585,649.1c-0.4,6.3-0.7,12.6-0.9,18.9c-18,14.2-45.8,29.6-81.4,29.6c-31.3,0-59.6-14-80.6-28.6
	c0-0.3,0-0.6-0.1-0.8c-0.7-3-1.1-11.5-2.3-18.9c27.6,15.9,59.4,24.9,90.8,25.4c1.5,0.3,2.7,0,3.8-0.6C536.3,676,562.5,664,585,649.1
	z"/>
<path class="st9" d="M386.2,820c-16.2-20.3-37.1-46.8-44.8-57c-6.8-9.1-27.7-8.7-46.2-6.3c25.8-23.7,54.7-44.2,84.7-62
	c-3.1,5.8-6.2,11.7-9.2,17.4c-5.6,12.2-14.2,23.7-16.6,37.1c-1.5,24.5,20.2,43.8,39.1,61.1C390.6,813.3,388.3,816.7,386.2,820z"/>
<path class="st9" d="M441.3,973.8c-7.9-0.7-15.9-1.6-23.8-2.6c-17.1-28.5-38.3-63.2-45.6-73c-10.8-14.3-4.5-39.4-2-47.8
	c-1.8,6.7-1.8,13.6,1.4,20.5C391,907.6,424,935.6,441.3,973.8z"/>
<path class="st9" d="M631.8,857.1c4.2,13.3,8.4,29.6,6,36.7c-2.7,7.9-21.2,44.6-35.5,72.3c-9.9,1.6-19.7,3.1-29.6,4.4
	c1-1.7,1.5-3.8,2.5-5.4c5.4-13.3,12.5-25.8,20.6-37.7C618.2,894.6,633.1,879.2,631.8,857.1z"/>
<path class="st9" d="M716.7,776.2c-14.1-7-41.9-19.6-48.4-13.2c-5,5-29.8,32.6-50.2,55.5c-1.9-3.5-4.1-7.1-6.5-11.1
	c47.7-44.2,45.6-62.9,21.8-102.4C662.9,726.7,691.1,750.2,716.7,776.2z"/>
<path class="st4" d="M318.2,167.4c0,0-17.2-8-25.2-28.6c0,0,11.9,8.5,24.6,0c0,0-34.6-33.5-34.6-57.6c0,0,21.3,1.9,37.5-9.3
	c0,0-7.8,0.9-14.3-1.9c0,0,19.5,1.9,45.4-12.1c26-13.9,72.3-16.7,117.7-8.3c0,0-14.8-15.8-44.5-15.8c0,0,84.4-12.1,166.9,19.5
	c0,0-2.8-9.3-10.2-12.1c0,0,85.3,16.7,116.8,77.9c0,0,2.8,4.6,2.8,7.4c0,0,3.7-3.7,3.7-7.4c0,0,2.8,9.5,0,25.2c0,0,4.6-3.8,7.4-9.4
	c0,0-6.5,43.6-34.3,58.4l-33-8.1l-26.3-28l-14.8-19.5l-12.6-7.8l-11.3-1.6l-5.8,12.2l-14.9,0.3l-38-17l-30.1-3.5l-45.9,3.5
	L386,135.9l-37.4,20.8l-15.4,8L318.2,167.4z"/>
<path class="st7" d="M355.8,161.6c-11.2,0.8-22.7-1.8-32.5-7.4c7.5,0,14.8-4.5,18.2-11.2c-15.6-14.3-29-30.8-39.7-49
	c17.6,0.1,35-7.5,46.9-20.5c-2.4-0.1-4.8-0.3-7.2-0.4c47.2-23.7,103.5-22.3,155-10.6c-5.4-7.1-10.8-14.2-16.3-21.3
	c8.9-1.8,18,0.5,26.7,2.8C543,53.8,578.7,64.8,614,77c-1-4.2-1.9-8.4-2.9-12.5c27.5,7.3,49.8,27.2,68.5,48.6c7,8,14.1,17.9,12,28.4
	c2.5-2.2,4.9-4.4,7.4-6.7c-0.6,7.3-2.3,14.5-5,21.3c1.9,1,4.4,0.7,5.9-0.9c2.5,6-2,12.5-6.4,17.3c-7.5,8.2-15.5,16.1-25.2,21.6
	c-26.8,15.2-60,9.1-90.5,4.6c-60.2-8.8-121.5-9.6-181.9-2.4c-12.2,1.5-24.3,3.3-36.5,4.8c-3.7,0.5-7.6,0.9-11.2-0.2
	c-8.7-2.9-7-9.8-3.9-16.1C345.6,181.9,353.6,161.8,355.8,161.6z"/>
<path class="st2" d="M679.3,369.8C679.3,369.8,679.3,369.9,679.3,369.8c1-32.8-2.8-24-10.5-55.9c-3-12.4-9.9-66.1-15.7-77.4
	c-4.5-8.7-10.5-16.6-17.8-23.2c-1.9-1.7-3.9-3.4-6.4-4.2c-2.1-0.7-4.3-0.7-6.4-0.7c-5.1-0.1-10.5,0.1-15.7,1.1
	c-1.2-4-3.1-7.8-5.8-11.2c-8.6-10.6-22.8-14.8-36.2-17.5c-46.2-9.5-94.3-9.4-140.4,0.2c-4.4,0.9-8.8,1.9-12.5,4.3
	c-4.8,3.1-7.9,8-12.1,11.9c-8,7.3-19.1,10.1-28.2,16c-11.5,7.4-19.4,19.4-24.9,32c-2.2,5.1-4.7,11.7-6.7,18.8
	c-1.9,7.1-5.9,28.7-6.4,33.1c-0.7,6.4-0.4,13.3,0,18.3c0.3,3.9-0.9,20.5-2,24.8c-0.8,3.2-1.5,6.5-2.2,9.8c-0.4,1.9-0.8,3.9-1.2,5.8
	c-0.7,3.4-1.4,6.8-2,10.2c-1.7,3.1-3.2,6.3-4.4,9.8c-3.4,16-2.6,32.4-1.3,48.5c4.2,14.8,6.2,30.1,9.4,45.2
	c11.3,51.1,22.2,105.3,59.7,143.7c31.3,30.8,75.2,49.7,118.9,50.6c1.8,0.1,3.7-0.3,5.4,0.3c0,0,0,0,0,0c0.9-0.1,1.8-0.1,2.7-0.2
	c44.7-4.8,84.6-35.4,112.5-68.7c26.3-32,35.5-73.1,42.4-112.9c3.1-18.3,6.2-36.6,11.3-54.4c0.2-0.5,0.4-1.1,0.6-1.8
	C682.8,407.7,682.2,388.4,679.3,369.8z"/>
<path class="st3" d="M483.1,498.3c0.2,0.5,0.2,0.7,0.6,1.2c4.5,5,10.4,10.3,17.9,10.9c8.8,0.3,15.4-6.7,17.4-13.7
	C508.9,503.8,493.9,504.5,483.1,498.3z"/>
<path class="st7" d="M559.3,329.5c23.4,4.1,46.1,10.8,67.9,18.9C619.6,331.5,575.9,312.7,559.3,329.5z"/>
<path class="st7" d="M375.6,352.9c23.4-8.2,47.7-14.9,72.9-19C430.4,317.1,383.6,335.9,375.6,352.9z"/>
<path class="st0" d="M518.2,490.4c-6.3,4.6-14.2,7.1-22.4,6.8c-6.3,0.3-11.2-3.6-16.6-5.4c-1.3,0.2-1.5,1.5-0.9,2.4
	c-0.4,9.8,10.1,17.9,20.4,20.2c9.7,2.3,19.5-3.2,22.7-11.3c1.5-4,4.9-9.3,2.8-13.3C522.6,488,519.6,488.8,518.2,490.4z M501.6,510.4
	c-7.6-0.7-13.4-6-17.9-10.9c-0.4-0.5-0.4-0.7-0.6-1.2c10.8,6.3,25.9,5.6,35.9-1.6C517,503.7,510.4,510.7,501.6,510.4z"/>
<path class="st0" d="M535.6,557c-2.1,0.1-3.3,1.5-5,2.3c-17.1,8.7-14.5,9.5-64.2,2.3c-0.9-0.5-1.8-1.3-2.9-1.9
	c0.4-0.5,0.7-0.9,1-1.2c0.3-5.4-14.8,4.5-11.8,7c2.1,2.4,5,0.4,7.5-2.1c8.5,4.2,37.5,12.8,51.7,11.7c13,0,15-4,26.1-13.5
	C540.4,559.6,539,556.8,535.6,557z"/>
<path class="st0" d="M420.5,427.6c5.4,2,12.7-0.1,16.9-2.8c7.3-6.9,11.6-18.2,4.4-25.8C422.7,387.4,406.1,420.2,420.5,427.6z"/>
<path class="st0" d="M369.1,358.4c0.5,0.3,1,0.5,1.6,0.5c7.4-0.6,14.3-3.1,21.5-4.6c21.5-5.8,43.8-9.3,65.7-13.6
	c6.5-4.6-1.2-13-6.8-16.3c-15-8.2-34.4-4.3-49.4,0.9c-12.7,4.3-22.4,13.3-30,22.3C369.7,350.7,366.3,355,369.1,358.4
	C369.2,358.4,369.1,358.4,369.1,358.4z M448.5,333.9c-25.2,4.1-49.5,10.8-72.9,19C383.6,335.9,430.4,317.1,448.5,333.9z"/>
<path class="st0" d="M583.5,427.6c14.5-7.4-2.3-40.2-21.5-28.5c-7.3,7.6-2.9,18.9,4.4,25.8C570.7,427.5,578.1,429.6,583.5,427.6z"/>
<path class="st10" d="M574.5,409.8c3.6-0.2,3.1-8.3-1.8-7.6c-2.1,0.9-2.2,3.6-1.4,5.6C571.9,408.7,573.2,409.8,574.5,409.8z"/>
<path class="st10" d="M577.5,410.6c3-0.2,2.6-7-1.6-6.4c-1.8,0.7-1.9,3-1.2,4.7C575.4,409.6,576.5,410.5,577.5,410.6z"/>
<path class="st10" d="M428.8,409.8c-3.6-0.2-3.1-8.3,1.8-7.6c2.1,0.9,2.2,3.6,1.4,5.6C431.4,408.7,430.1,409.8,428.8,409.8z"/>
<path class="st10" d="M425.7,410.6c-3-0.2-2.6-7,1.6-6.4c1.8,0.7,1.9,3,1.2,4.7C427.9,409.6,426.8,410.5,425.7,410.6z"/>
<path class="st0" d="M611.9,349.9c6.7,1.5,13.1,4,20,4.6c0.5,0,1.1-0.2,1.5-0.5c0,0,0,0,0,0c2.6-3.4-0.6-7.7-2.5-10.9
	c-7.1-9-16.3-18-28.1-22.3c-14-5.2-32.1-9.1-45.9-0.8c-5.1,3.3-12.2,11.7-6.1,16.3C571.1,340.6,591.8,344.2,611.9,349.9z
	 M627.2,348.5c-21.8-8.2-44.5-14.8-67.9-18.9C575.9,312.7,619.6,331.5,627.2,348.5z"/>
</svg>
