<svg width="80" height="66" viewBox="0 0 80 66" fill="none" xmlns="http://www.w3.org/2000/svg">
<g clip-path="url(#clip0)">
<path d="M75.716 30.7521L74.5506 30.0646C74.3701 29.9609 74.1361 30.0187 74.0312 30.1973L73.0413 31.8713L71.7344 34.1147C71.5833 34.3728 71.2492 34.462 70.9859 34.3124L66.88 31.9654C66.6166 31.8158 66.5264 31.4854 66.68 31.2248L68.0625 28.8609L69.0207 27.2399C69.1256 27.0614 69.067 26.8347 68.8866 26.7309L67.4895 25.906C67.3091 25.7998 67.075 25.8601 66.9702 26.0386L66.0876 27.527L54.372 47.4492L53.4918 48.9448L53.4503 49.0123L53.209 49.4224C53.2016 49.4369 53.1919 49.449 53.1797 49.4634L53.1748 49.4683L52.8652 49.9845H64.6124C64.7465 49.9845 64.8709 49.9145 64.9392 49.8011L66.3216 47.4517L74.7359 33.1401L75.8501 31.2634C75.955 31.0825 75.8965 30.8558 75.716 30.7521ZM65.0733 45.2952L62.7009 49.3597C62.5497 49.6178 62.2157 49.7071 61.9524 49.5575L57.8464 47.2104C57.5831 47.0609 57.4953 46.7304 57.6465 46.4699L60.0164 42.4078C60.1676 42.1472 60.5041 42.0604 60.765 42.21L64.8733 44.5546C65.1342 44.7042 65.2244 45.0371 65.0733 45.2952ZM69.5644 37.5882L67.1945 41.6528C67.0433 41.9133 66.7093 42.0001 66.446 41.8505L62.34 39.5059C62.0767 39.3539 61.9865 39.0235 62.1401 38.7654L64.51 34.7008C64.6612 34.4403 64.9952 34.3535 65.2586 34.503L69.3669 36.8477C69.6278 36.9996 69.7181 37.3301 69.5644 37.5882Z" fill="white"/>
<path d="M38.3408 8.86633C38.2164 8.79155 38.0555 8.83256 37.9823 8.95799L35.7368 12.7886C35.5831 13.0467 35.2491 13.1359 34.9882 12.9839L30.8847 10.6321C30.6214 10.4801 30.5336 10.1496 30.6872 9.8891L32.9231 6.07301C33.0011 5.94034 32.9596 5.76908 32.8304 5.68465C32.3988 5.40725 31.4992 4.81385 31.0554 4.51956C30.914 4.42548 30.7238 4.4689 30.6409 4.61363C22.9264 17.8228 14.0806 32.8315 6.39781 45.9972C5.64928 47.2781 4.91294 48.5662 4.09858 49.9822H13.2467L9.18468 47.652C8.92379 47.5 8.83358 47.1695 8.98718 46.9114L11.3644 42.8517C11.518 42.5912 11.8521 42.5044 12.1154 42.6563L16.2165 45.0082C16.4798 45.1602 16.5676 45.4907 16.4164 45.7512L14.0367 49.8085C13.9928 49.8809 13.9367 49.9387 13.8685 49.9846H16.8967L18.7693 46.704L19.2374 45.8839C21.7658 41.4695 24.3625 37.0962 26.9275 32.7012C31.0042 25.7155 36.1732 17.4224 40.3669 10.3378C40.4401 10.2147 40.3962 10.058 40.2718 9.98559C39.8378 9.73713 38.8796 9.18957 38.3408 8.86633ZM20.7564 38.3457L18.3767 42.4055C18.2256 42.6636 17.8891 42.7528 17.6282 42.6009L13.5247 40.2466C13.2638 40.097 13.1736 39.7665 13.3272 39.506L15.7069 35.4487C15.8581 35.1882 16.1921 35.1013 16.4554 35.2509L20.5565 37.6052C20.8174 37.7548 20.9076 38.0876 20.7564 38.3457ZM25.0964 30.9427L22.7167 35C22.5656 35.2606 22.2315 35.3474 21.9682 35.1978L17.8647 32.8435C17.6038 32.6916 17.516 32.3611 17.6672 32.103L20.0469 28.0433C20.1981 27.7852 20.5321 27.6959 20.7954 27.8479L24.8989 30.1998C25.1574 30.3517 25.2476 30.6846 25.0964 30.9427ZM29.4364 23.5373L27.0567 27.597C26.9056 27.8551 26.5715 27.9444 26.3082 27.7924L22.2071 25.4381C21.9438 25.2885 21.856 24.9581 22.0072 24.6976L24.3869 20.6402C24.5381 20.3797 24.8745 20.2929 25.1354 20.4424L29.2389 22.7967C29.4974 22.9463 29.59 23.2816 29.4364 23.5373ZM33.7764 16.1367L31.3992 20.194C31.2456 20.4545 30.9115 20.5413 30.6482 20.3918L26.5472 18.0375C26.2838 17.8879 26.196 17.5551 26.3472 17.2969L28.7269 13.2372C28.8805 12.9791 29.2146 12.8899 29.4754 13.0418L33.5789 15.3961C33.8374 15.5457 33.93 15.8762 33.7764 16.1367Z" fill="white"/>
<path d="M50.01 45.4787L47.3792 49.9847H22.8801C22.9166 49.6687 23.0191 49.3503 23.1873 49.056L31.4577 34.8844C32.1306 33.7313 33.6228 33.3357 34.7883 33.9991L49.1127 42.1813C50.2831 42.8494 50.6854 44.3233 50.01 45.4787Z" fill="white"/>
<path d="M62.5863 23.0742C62.9106 23.2648 63.0227 23.6773 62.8325 24.0005L55.652 36.3027C54.9815 37.4557 53.4869 37.8513 52.3214 37.188L37.997 29.0058C36.8315 28.34 36.4316 26.8638 37.1046 25.7108L44.3753 13.2494C44.5655 12.9213 44.9922 12.8104 45.3213 13.0033L62.5863 23.0742Z" fill="white"/>
<path d="M73.8216 52.9999H6.17842C2.77224 52.9999 0 50.2572 0 46.8874V6.52656C0 3.15673 2.77224 0.414062 6.17842 0.414062H73.824C77.2302 0.414062 80.0024 3.15673 80.0024 6.52656V46.8874C80 50.2572 77.2302 52.9999 73.8216 52.9999ZM6.17842 4.03235C4.78864 4.03235 3.65731 5.15161 3.65731 6.52656V46.8874C3.65731 48.2623 4.78864 49.3816 6.17842 49.3816H73.824C75.2138 49.3816 76.3451 48.2623 76.3451 46.8874V6.52656C76.3451 5.15161 75.2138 4.03235 73.824 4.03235H6.17842Z" fill="white"/>
<path d="M38 57C38 58.1046 38.8954 59 40 59C41.1046 59 42 58.1046 42 57H38ZM38 51V57H42V51H38Z" fill="white"/>
<path d="M19 58.5H60.5" stroke="white" stroke-width="3" stroke-linecap="round" stroke-linejoin="round"/>
</g>
<defs>
<clipPath id="clip0">
<rect width="80" height="66" fill="white"/>
</clipPath>
</defs>
</svg>
